<svg xmlns="http://www.w3.org/2000/svg" viewBox="0 0 338.67 66.83"><defs><style>.cls-1{fill:#00263d;}</style></defs><title>Fichier 16</title><g id="Calque_2" data-name="Calque 2"><g id="Calque_1-2" data-name="Calque 1"><path class="cls-1" d="M335.9,20.57l-2-2.44c1-.17,2-.69,2-1.77s-.66-1.42-2.14-1.42H331.7v6.38c.14,0,.28,0,.43,0l.42,0V18.21h.37l.77.87,1.14,1.43.61.81c.17,0,.36,0,.55,0l.56,0-.19-.23Zm-3.35-2.72V15.29a8.37,8.37,0,0,1,1.42,0A1.1,1.1,0,0,1,335,16.47a1.36,1.36,0,0,1-1.23,1.33A5.22,5.22,0,0,1,332.55,17.85Z"/><path class="cls-1" d="M333.88,13.47a4.63,4.63,0,1,0,4.79,4.62A4.71,4.71,0,0,0,333.88,13.47Zm0,8.78a4.16,4.16,0,1,1,4.3-4.16A4.23,4.23,0,0,1,333.88,22.25Z"/><path class="cls-1" d="M86.29,13.25h-.87L73.61,38.83a13,13,0,0,1,1.33-.11c.45,0,.87.07,1.4.11,1.06-3.44,2.42-6.66,3.74-9.88H89.7c1.51,3.33,2.87,6.84,4,9.88.65,0,1.29-.11,2-.11s1.25.07,2,.11ZM80.8,27.41,84.93,18l4.2,9.37Z"/><path class="cls-1" d="M123.61,13.8c-.38,0-.72.11-1.06.11s-.72-.08-1.06-.11V32.64h-.38l-18-18.84h-1.47v25a8.62,8.62,0,0,1,1.06-.11,10.61,10.61,0,0,1,1.06.11V19.1h.38l16.35,17.49c.79.85,1.55,1.72,2,2.24h1.14Z"/><path class="cls-1" d="M140.22,13.25h-.87L127.54,38.83a12.56,12.56,0,0,1,1.32-.11c.45,0,.87.07,1.4.11,1.06-3.44,2.42-6.66,3.75-9.88h9.61c1.52,3.33,2.88,6.84,4,9.88.64,0,1.28-.11,2-.11s1.25.07,2,.11Zm-5.49,14.16L138.85,18l4.2,9.37Z"/><path class="cls-1" d="M168.83,37.62c0-.37.07-.7.11-1.1-1.21.15-2.38.29-3.59.33-2.27.07-4.55.22-6.85.15V13.8c-.61,0-1.14.11-1.67.11s-1.14-.08-1.67-.11V38.72h13.78A10.24,10.24,0,0,1,168.83,37.62Z"/><path class="cls-1" d="M185.86,39.27c8.44,0,14.42-5.35,14.42-13.51,0-8.78-7.23-12.51-14.34-12.51-7.84,0-14,5.05-14,13.06C171.93,34.14,177.49,39.27,185.86,39.27Zm.45-24.82A10.2,10.2,0,0,1,194.19,18c2,2.46,2.38,5,2.38,8.06.26,4-2.61,12-10.6,12-5.64,0-10.33-3.88-10.33-11.31S179.65,14.45,186.31,14.45Z"/><path class="cls-1" d="M218.51,14.64A11.48,11.48,0,0,1,227,18.19h.41c.27-1,.53-1.9.88-2.82-.84-.51-4-2.12-9.66-2.12-8.4,0-14.76,4.5-14.76,13.06,0,7.43,4.39,13,14,13a32.49,32.49,0,0,0,10.29-1.69V27.23c-.6,0-1.13.11-1.66.11s-1.14-.08-1.67-.11v9.4a13.31,13.31,0,0,1-5.9,1.25c-7.46,0-11.32-4.51-11.32-11.75C207.61,18.74,212.08,14.64,218.51,14.64Z"/><path class="cls-1" d="M249.42,38.83a12.92,12.92,0,0,1,1.29-.11c.38,0,.79.07,1.25.11L259.3,18.3h.3c2.39,7.17,6.4,19.1,6.85,20.53.42,0,.83-.11,1.25-.11s.79.07,1.25.11l7.23-20.35c.57-1.61,1.21-3.18,1.89-4.68-.49,0-.91.11-1.32.11s-.91-.08-1.33-.11l-.91,3-4.42,13.79c-.46,1.39-.95,2.78-1.52,4.17h-.34c-3.41-10-6.47-18.37-7.19-21-.38,0-.72.11-1.06.11s-.76-.08-1.1-.11c-.91,3.11-4.92,14.27-7.34,21h-.34L248,25.1l-2.23-7.42c-.38-1.32-.72-2.64-1.14-3.88-.64,0-1.21.11-1.74.11s-1.21-.08-1.78-.11L247.91,34C248.44,35.57,248.89,37.14,249.42,38.83Z"/><path class="cls-1" d="M294.84,29c1.51,3.33,2.87,6.84,4,9.88.64,0,1.29-.11,2-.11s1.25.07,2,.11L291.43,13.25h-.87L278.75,38.83a12.79,12.79,0,0,1,1.32-.11c.46,0,.88.07,1.41.11,1.06-3.44,2.42-6.66,3.74-9.88ZM290.07,18l4.2,9.37h-8.33Z"/><path class="cls-1" d="M316.37,27.59a29.92,29.92,0,0,1,2.12-3.66l4.16-6.47c.84-1.25,1.75-2.49,2.69-3.66-.53,0-1,.11-1.48.11s-1-.08-1.47-.11c-1.1,1.94-5.94,10.79-7.23,12.26C314,24.3,309.44,16.61,308,13.8c-.76,0-1.44.11-2.08.11s-1.44-.08-2.12-.11L313,28.29V38.83c.53,0,1.1-.11,1.67-.11s1.05.07,1.66.11Z"/><path class="cls-1" d="M0,66.83H66.83V0H0ZM1.15,1.15H65.68V65.68H1.15Z"/><polygon class="cls-1" points="13.07 32.56 19.78 45.82 13.07 45.82 13.07 53.25 32.95 53.25 13.07 13.56 13.07 32.56"/><polygon class="cls-1" points="45.14 26.37 38.7 13.56 31.25 13.56 31.25 26.35 24.82 13.56 15.22 13.56 35.16 53.25 41.79 53.25 41.79 45.52 46.64 53.25 53.63 53.25 53.63 13.56 45.14 13.56 45.14 26.37"/><path class="cls-1" d="M78.52,41.06l-2.34,0-.77,0c0,.17,0,.37-.06.62s-.1.84-.23,1.81c-.16,1.13-.36,2.41-.6,3.82-.27,1.69-.53,3.2-.78,4.51q-.18.95-.24,1.2c0,.17-.08.35-.12.54.3,0,.56-.05.78-.05s.48,0,.79.05a5,5,0,0,1,0-.62c0-.24.1-.85.23-1.81s.31-2.1.51-3.3h0q.54,0,1.23.06a5.24,5.24,0,0,0,3.52-1.1,3.76,3.76,0,0,0,1.3-3A2.53,2.53,0,0,0,81,41.73,3.73,3.73,0,0,0,78.52,41.06Zm.86,5.23a3.67,3.67,0,0,1-2.61.88l-.93,0q.5-3,.93-5.26A7.46,7.46,0,0,1,78,41.83a2.76,2.76,0,0,1,1.79.48,1.86,1.86,0,0,1,.58,1.52A3.21,3.21,0,0,1,79.38,46.29Z"/><path class="cls-1" d="M84.1,44.87a5.32,5.32,0,0,1,0,.89q0,.47-.3,2.16l-.21,1.29-.22,1.3c-.18,1-.29,1.66-.36,2s-.15.67-.27,1.09c.31,0,.58-.05.8-.05s.49,0,.8.05q0-.78.06-1.23c0-.31.11-.91.25-1.82l.21-1.29.43-2.52c.1-.59.17-1,.21-1.16s.1-.41.18-.67a6.42,6.42,0,0,1-.79.06A5.87,5.87,0,0,1,84.1,44.87Z"/><path class="cls-1" d="M85.31,40.85a.81.81,0,0,0-.6.26.93.93,0,0,0-.24.64.88.88,0,0,0,.24.63.77.77,0,0,0,.6.26.75.75,0,0,0,.59-.26.88.88,0,0,0,.24-.63.93.93,0,0,0-.24-.64A.79.79,0,0,0,85.31,40.85Z"/><path class="cls-1" d="M91.66,44.67a4.23,4.23,0,0,0-3.34,1.51A5.68,5.68,0,0,0,87,50v0a3.59,3.59,0,0,0,1,2.67,3.44,3.44,0,0,0,2.61,1,4.2,4.2,0,0,0,3.33-1.51,5.69,5.69,0,0,0,1.32-3.86v0a3.74,3.74,0,0,0-1-2.68A3.44,3.44,0,0,0,91.66,44.67Zm1.29,7a2.59,2.59,0,0,1-2.28,1.39A2,2,0,0,1,89,52.37a3,3,0,0,1-.59-2,6.84,6.84,0,0,1,.87-3.66,2.61,2.61,0,0,1,2.29-1.39,2,2,0,0,1,1.65.72,3,3,0,0,1,.59,2A6.78,6.78,0,0,1,93,51.7Z"/><path class="cls-1" d="M101.79,44.68a3.58,3.58,0,0,0-2.4,1,6.14,6.14,0,0,0-.51.51l.2-.75c0-.18.11-.37.18-.56a5.46,5.46,0,0,1-.73.06,5,5,0,0,1-.72-.06,4.51,4.51,0,0,1,0,.9c0,.31-.13,1-.29,2.15l-.21,1.29-.22,1.3c-.18,1-.3,1.66-.36,2s-.16.67-.27,1.09c.3,0,.55-.05.77-.05s.48,0,.78.05q0-.78.06-1.23c0-.31.12-.91.25-1.82l.2-1.29.12-.74a4.38,4.38,0,0,1,.9-2.22,2.17,2.17,0,0,1,1.72-.76,1.48,1.48,0,0,1,1.37.74,3,3,0,0,1,.22,2l-.16,1-.22,1.3c-.17,1-.29,1.66-.36,2s-.15.67-.27,1.09c.3,0,.56-.05.77-.05s.48,0,.78.05q0-.78.06-1.23c0-.31.11-.91.25-1.82l.2-1.29L104.1,48a3.09,3.09,0,0,0-.4-2.37A2.19,2.19,0,0,0,101.79,44.68Z"/><path class="cls-1" d="M110.12,44.67A3.87,3.87,0,0,0,107,46.11a5.43,5.43,0,0,0-1.22,3.66,4.06,4.06,0,0,0,1,2.89,3.43,3.43,0,0,0,2.67,1.1,4.32,4.32,0,0,0,1.31-.19,6.05,6.05,0,0,0,1.34-.62c0-.18,0-.33.06-.47s.07-.28.13-.46h-.17a4.58,4.58,0,0,1-1.18.83,2.85,2.85,0,0,1-1.21.25,2.31,2.31,0,0,1-1.87-.8,3.51,3.51,0,0,1-.66-2.27l0-.83h2.9c.57,0,1.14,0,1.69.05s1,.06,1.21.1h0a6.06,6.06,0,0,0,.1-.74,7,7,0,0,0,0-.74,3.32,3.32,0,0,0-.82-2.31A3,3,0,0,0,110.12,44.67Zm1.6,3.83h-4.35a5.22,5.22,0,0,1,.65-1.87,2.3,2.3,0,0,1,2-1.29,1.59,1.59,0,0,1,1.3.61,2.77,2.77,0,0,1,.47,1.72A4.08,4.08,0,0,1,111.72,48.5Z"/><path class="cls-1" d="M110.1,44.67h0Z"/><path class="cls-1" d="M118.57,44.67a3.89,3.89,0,0,0-3.09,1.44,5.48,5.48,0,0,0-1.22,3.66,4.06,4.06,0,0,0,1,2.89,3.46,3.46,0,0,0,2.68,1.1,4.37,4.37,0,0,0,1.31-.19A6,6,0,0,0,120.6,53c0-.18.05-.33.07-.47a3.17,3.17,0,0,1,.12-.46h-.16a4.62,4.62,0,0,1-1.19.83,2.84,2.84,0,0,1-1.2.25,2.29,2.29,0,0,1-1.87-.8A3.45,3.45,0,0,1,115.7,50l0-.83h2.9c.57,0,1.13,0,1.69.05s1,.06,1.2.1h0a5.89,5.89,0,0,0,.11-.74,4.91,4.91,0,0,0,0-.74,3.27,3.27,0,0,0-.82-2.31A3,3,0,0,0,118.57,44.67Zm1.61,3.83h-4.35a5.22,5.22,0,0,1,.64-1.87,2.3,2.3,0,0,1,2-1.29,1.58,1.58,0,0,1,1.3.61,2.71,2.71,0,0,1,.47,1.72A4,4,0,0,1,120.18,48.5Z"/><path class="cls-1" d="M118.55,44.67h0Z"/><path class="cls-1" d="M127.59,44.68a2.71,2.71,0,0,0-1.9,1.26,9.79,9.79,0,0,0-.64.89l0-.13c.18-.77.3-1.24.35-1.42s.08-.32.11-.41a5.21,5.21,0,0,1-.72.06,4.85,4.85,0,0,1-.71-.06,5.32,5.32,0,0,1,0,.89q0,.47-.3,2.16l-.21,1.29-.22,1.3c-.18,1-.3,1.66-.36,2s-.15.67-.27,1.09c.3,0,.56-.05.77-.05s.47,0,.77.05c0-.58,0-1,0-1.31s.12-.88.26-1.74l.18-1a6.86,6.86,0,0,1,.77-2.45,1.51,1.51,0,0,1,1.26-.83,2,2,0,0,1,.53.06,3.5,3.5,0,0,1,.56.25c0-.34,0-.64,0-.89s0-.55,0-.91A1.06,1.06,0,0,0,127.59,44.68Z"/><path class="cls-1" d="M136,40.85a.79.79,0,0,0-.59.26.89.89,0,0,0-.25.64.85.85,0,0,0,.25.63.8.8,0,0,0,1.18,0,.89.89,0,0,0,.25-.63.93.93,0,0,0-.25-.64A.79.79,0,0,0,136,40.85Z"/><path class="cls-1" d="M134.81,44.87a4.43,4.43,0,0,1,0,.89q0,.47-.3,2.16l-.2,1.29-.23,1.3c-.17,1-.29,1.66-.35,2s-.16.67-.28,1.09c.31,0,.58-.05.8-.05s.49,0,.8.05q0-.78.06-1.23c0-.31.12-.91.25-1.82l.21-1.29L136,46.7c.09-.59.17-1,.21-1.16s.09-.41.17-.67a6.42,6.42,0,0,1-.79.06A5.87,5.87,0,0,1,134.81,44.87Z"/><path class="cls-1" d="M143.11,44.68a3.58,3.58,0,0,0-2.4,1,6.14,6.14,0,0,0-.51.51l.2-.75c0-.18.11-.37.18-.56a5.46,5.46,0,0,1-.73.06,5,5,0,0,1-.72-.06,4.51,4.51,0,0,1,0,.9c0,.31-.13,1-.29,2.15l-.21,1.29-.22,1.3c-.18,1-.3,1.66-.36,2s-.16.67-.27,1.09c.3,0,.56-.05.77-.05s.48,0,.78.05q0-.78.06-1.23c0-.31.12-.91.25-1.82l.2-1.29.12-.74a4.38,4.38,0,0,1,.9-2.22,2.16,2.16,0,0,1,1.72-.76,1.48,1.48,0,0,1,1.37.74,3,3,0,0,1,.22,2l-.16,1-.22,1.3c-.17,1-.3,1.66-.36,2s-.15.67-.27,1.09c.3,0,.56-.05.77-.05s.48,0,.78.05q0-.78.06-1.23c0-.31.11-.91.24-1.82l.21-1.29.22-1.26a3.09,3.09,0,0,0-.4-2.37A2.19,2.19,0,0,0,143.11,44.68Z"/><path class="cls-1" d="M161,51.82c-.34-1.29-.71-2.78-1.11-4.46-.59-2.49-1-4.57-1.37-6.26h-.37q-1.38,2.53-3.56,6.25c-1,1.68-1.89,3.17-2.69,4.47l-.85,1.36-.24.38a5.74,5.74,0,0,1,.65-.05,6.06,6.06,0,0,1,.67.05c.15-.37.27-.65.36-.82s.24-.48.48-.92c.46-.89,1-1.85,1.57-2.89a14.78,14.78,0,0,1,2.45-.19,18.54,18.54,0,0,1,1.95.12l.6,3c.09.46.15.78.17,1s0,.44.09.79c.33,0,.62-.05.86-.05s.53,0,.86.05a2.28,2.28,0,0,1-.15-.41Zm-4.19-3.94a16.26,16.26,0,0,1-1.65-.1l.29-.51q1.22-2.19,2.24-3.92h0c.28,1.15.59,2.46.91,3.92l.11.52A18.64,18.64,0,0,1,156.81,47.88Z"/><path class="cls-1" d="M168.46,44.68a3.54,3.54,0,0,0-2.39,1,6.26,6.26,0,0,0-.52.51l.2-.75.18-.56a5.22,5.22,0,0,1-.73.06,5,5,0,0,1-.71-.06,5.41,5.41,0,0,1,0,.9c0,.31-.13,1-.29,2.15L164,49.21l-.23,1.3c-.17,1-.29,1.66-.35,2s-.16.67-.28,1.09c.3,0,.56-.05.78-.05s.47,0,.78.05a9.81,9.81,0,0,1,.06-1.23c0-.31.11-.91.24-1.82l.21-1.29.11-.74a4.3,4.3,0,0,1,.91-2.22,2.15,2.15,0,0,1,1.71-.76,1.47,1.47,0,0,1,1.37.74,3,3,0,0,1,.23,2l-.16,1-.22,1.3c-.18,1-.3,1.66-.36,2s-.16.67-.27,1.09c.3,0,.55-.05.77-.05s.47,0,.78.05a9.81,9.81,0,0,1,.06-1.23c0-.31.11-.91.24-1.82l.21-1.29.21-1.26a3.09,3.09,0,0,0-.39-2.37A2.22,2.22,0,0,0,168.46,44.68Z"/><path class="cls-1" d="M178.91,52.92a.48.48,0,0,1-.47-.38,2.71,2.71,0,0,1,0-1.14l.36-2.31.21-1.24a4.56,4.56,0,0,0,.07-.8,2.41,2.41,0,0,0-.47-1.55,2.5,2.5,0,0,0-2.09-.83,4.36,4.36,0,0,0-1.31.23,6.76,6.76,0,0,0-1.42.67,2.23,2.23,0,0,1,0,.59,5.34,5.34,0,0,1-.14.59h.17a4,4,0,0,1,1.12-1,2.61,2.61,0,0,1,1.23-.31,1.64,1.64,0,0,1,1.39.59,2.05,2.05,0,0,1,.28,1.6l0,.21a.67.67,0,0,1-.14.28.53.53,0,0,1-.25.16l-2.65.69A3.66,3.66,0,0,0,173,50a2.1,2.1,0,0,0-.66,1.54,2.16,2.16,0,0,0,.61,1.62,2.27,2.27,0,0,0,1.66.61,3.17,3.17,0,0,0,1.84-.71,5,5,0,0,0,.81-.71,2.77,2.77,0,0,0,.15.76,1,1,0,0,0,1,.66,1.7,1.7,0,0,0,1.25-.56l-.16-.4A1.21,1.21,0,0,1,178.91,52.92ZM177.6,49.1l-.43,2.54a2.89,2.89,0,0,1-.75.77,2.25,2.25,0,0,1-1.35.54,1.28,1.28,0,0,1-1-.4,1.54,1.54,0,0,1-.37-1.08,1.59,1.59,0,0,1,.49-1.18,3.37,3.37,0,0,1,1.45-.77l2-.55Z"/><path class="cls-1" d="M183.41,39.88a3.63,3.63,0,0,1,0,.79c0,.31-.12,1.06-.28,2.25s-.36,2.42-.59,3.81l-.65,3.78c-.16.94-.28,1.56-.34,1.86s-.17.7-.3,1.19c.31,0,.57-.05.79-.05s.5,0,.81.05a8.85,8.85,0,0,1,.05-1.1c0-.3.11-1,.25-2s.36-2.41.58-3.8q.47-2.84.87-5c.13-.64.21-1.05.25-1.23a5.69,5.69,0,0,1,.15-.59,6.42,6.42,0,0,1-.79.06A5.87,5.87,0,0,1,183.41,39.88Z"/><path class="cls-1" d="M190.26,44.67a4.23,4.23,0,0,0-3.34,1.51A5.73,5.73,0,0,0,185.61,50v0a3.67,3.67,0,0,0,1,2.67,3.44,3.44,0,0,0,2.61,1,4.18,4.18,0,0,0,3.33-1.51,5.69,5.69,0,0,0,1.32-3.86v0a3.69,3.69,0,0,0-1-2.68A3.44,3.44,0,0,0,190.26,44.67Zm1.3,7a2.6,2.6,0,0,1-2.29,1.39,2,2,0,0,1-1.65-.72,3,3,0,0,1-.6-2,6.84,6.84,0,0,1,.87-3.66,2.62,2.62,0,0,1,2.29-1.39,2,2,0,0,1,1.65.72,3,3,0,0,1,.6,2A7,7,0,0,1,191.56,51.7Z"/><path class="cls-1" d="M197,50.5a3.26,3.26,0,0,1,1.07-.12,4.77,4.77,0,0,0,3-.8,2.66,2.66,0,0,0,1.07-2.26,2.49,2.49,0,0,0-.68-1.84l.44,0q.4,0,.75.06a2.32,2.32,0,0,1,.46.08V44.54a2.31,2.31,0,0,1-.56.15,3.07,3.07,0,0,1-.65.07h-1.72c-.17,0-.32,0-.46-.06a2.91,2.91,0,0,0-.6,0h0a3.52,3.52,0,0,0-2.49.91,3,3,0,0,0-1,2.32,2.43,2.43,0,0,0,.67,1.8,4.07,4.07,0,0,0,.52.41l-.37.2a1.64,1.64,0,0,0-.88,1.14,1,1,0,0,0,.54,1.11,3.14,3.14,0,0,0,.47.17,4.5,4.5,0,0,0-.73.36,2.2,2.2,0,0,0-1.18,1.6,1.93,1.93,0,0,0,.74,1.86,4,4,0,0,0,2.53.69,4,4,0,0,0,2.65-1,3.6,3.6,0,0,0,1.31-2.38,1.7,1.7,0,0,0-.53-1.59,2.94,2.94,0,0,0-2-.55h-1.66a1.35,1.35,0,0,1-.83-.21.63.63,0,0,1-.24-.61A.5.5,0,0,1,197,50.5Zm.63-4.44a1.82,1.82,0,0,1,1.5-.7,1.44,1.44,0,0,1,1.15.47,1.9,1.9,0,0,1,.42,1.32,2.74,2.74,0,0,1-.58,1.84,1.83,1.83,0,0,1-1.5.7,1.46,1.46,0,0,1-1.16-.47,1.94,1.94,0,0,1-.41-1.31A2.84,2.84,0,0,1,197.63,46.06Zm.65,6.84a3.54,3.54,0,0,1,1.87.4,1.15,1.15,0,0,1,.51,1.17,2.17,2.17,0,0,1-.88,1.48,2.84,2.84,0,0,1-1.79.6,2.5,2.5,0,0,1-1.74-.53,1.6,1.6,0,0,1-.45-1.48,1.59,1.59,0,0,1,.76-1.19A3,3,0,0,1,198.28,52.9Z"/><path class="cls-1" d="M205,51.69a1.08,1.08,0,0,0-.48.49l-.08.15-1.88,4.13.39.27L205.52,53l.09-.13a1.13,1.13,0,0,0,.19-.69.62.62,0,0,0-.29-.48A.53.53,0,0,0,205,51.69Z"/><path class="cls-1" d="M216.64,52.72h-1.76c.21-1.53.49-3.31.82-5.36.27-1.71.53-3.23.79-4.56.13-.63.21-1,.24-1.21s.08-.35.14-.53c-.31,0-.57,0-.78,0s-.48,0-.78,0c0,.16,0,.37-.05.61s-.11.85-.24,1.82c-.17,1.15-.36,2.43-.6,3.87-.27,1.7-.54,3.22-.79,4.56-.07.36-.13.63-.17.81s-.13.48-.26.92c.25,0,.6-.07,1-.1s.85,0,1.23,0h1l1.51,0,1.27.06a1.77,1.77,0,0,1,0-.52,2.36,2.36,0,0,1,.15-.52c-.23,0-.63.07-1.19.1S217.16,52.72,216.64,52.72Z"/><path class="cls-1" d="M225,44.67a3.89,3.89,0,0,0-3.09,1.44,5.48,5.48,0,0,0-1.22,3.66,4.06,4.06,0,0,0,1,2.89,3.46,3.46,0,0,0,2.68,1.1,4.37,4.37,0,0,0,1.31-.19A6,6,0,0,0,227,53c0-.18,0-.33.07-.47a3.17,3.17,0,0,1,.12-.46h-.16a4.62,4.62,0,0,1-1.19.83,2.84,2.84,0,0,1-1.2.25,2.29,2.29,0,0,1-1.87-.8,3.45,3.45,0,0,1-.67-2.27l0-.83h2.9c.57,0,1.13,0,1.69.05s1,.06,1.2.1h0a5.89,5.89,0,0,0,.11-.74,4.91,4.91,0,0,0,0-.74,3.27,3.27,0,0,0-.82-2.31A3,3,0,0,0,225,44.67Zm1.61,3.83h-4.35a5.22,5.22,0,0,1,.64-1.87,2.3,2.3,0,0,1,2-1.29,1.6,1.6,0,0,1,1.31.61,2.77,2.77,0,0,1,.46,1.72A4,4,0,0,1,226.6,48.5Z"/><path class="cls-1" d="M225,44.67h0Z"/><path class="cls-1" d="M235.57,52.92a.48.48,0,0,1-.48-.38,2.88,2.88,0,0,1,0-1.14l.37-2.31.21-1.24a3.73,3.73,0,0,0,.06-.8,2.4,2.4,0,0,0-.46-1.55,2.52,2.52,0,0,0-2.09-.83,4.42,4.42,0,0,0-1.32.23,7,7,0,0,0-1.42.67,2.82,2.82,0,0,1,0,.59c0,.16-.08.36-.14.59h.16a4,4,0,0,1,1.13-1,2.55,2.55,0,0,1,1.23-.31,1.63,1.63,0,0,1,1.38.59,2,2,0,0,1,.28,1.6l0,.21a.57.57,0,0,1-.14.28.53.53,0,0,1-.25.16l-2.64.69a3.7,3.7,0,0,0-1.79,1,2.14,2.14,0,0,0-.66,1.54,2.16,2.16,0,0,0,.62,1.62,2.23,2.23,0,0,0,1.65.61,3.2,3.2,0,0,0,1.85-.71,6.06,6.06,0,0,0,.81-.71,2.18,2.18,0,0,0,.15.76,1,1,0,0,0,.95.66,1.68,1.68,0,0,0,1.24-.56l-.16-.4A1.2,1.2,0,0,1,235.57,52.92Zm-1.31-3.82-.44,2.54a2.85,2.85,0,0,1-.74.77,2.3,2.3,0,0,1-1.35.54,1.3,1.3,0,0,1-1-.4,1.7,1.7,0,0,1,.13-2.26,3.31,3.31,0,0,1,1.45-.77l2-.55Z"/><path class="cls-1" d="M245.31,39.88a5.61,5.61,0,0,1,0,.79c0,.3-.13,1.06-.29,2.25s-.32,2.2-.53,3.45a2.58,2.58,0,0,0-.22-.44A2.49,2.49,0,0,0,242,44.67a3.69,3.69,0,0,0-3,1.5,5.79,5.79,0,0,0-1.22,3.69,4.46,4.46,0,0,0,.84,2.82,2.59,2.59,0,0,0,2.16,1.08,3.06,3.06,0,0,0,2.46-1.22,7.34,7.34,0,0,0,.48-.71l-.3,1.14c-.06.2-.13.39-.2.59a7.06,7.06,0,0,1,.73-.05,7.25,7.25,0,0,1,.73.05c0-.43,0-.79,0-1.1s.12-1,.25-2,.36-2.41.59-3.8q.47-2.84.87-5c.12-.64.21-1.05.24-1.23a5.89,5.89,0,0,1,.16-.59,6.56,6.56,0,0,1-.8.06A5.61,5.61,0,0,1,245.31,39.88Zm-1.18,9.19a6.8,6.8,0,0,1-1,2.87,2.13,2.13,0,0,1-1.78,1,1.78,1.78,0,0,1-1.55-.79,3.88,3.88,0,0,1-.55-2.24,5.46,5.46,0,0,1,.89-3.13,2.57,2.57,0,0,1,2.13-1.32,1.71,1.71,0,0,1,1.65,1A4.18,4.18,0,0,1,244.13,49.07Z"/><path class="cls-1" d="M251.27,44.67h0Z"/><path class="cls-1" d="M251.29,44.67a3.89,3.89,0,0,0-3.09,1.44A5.48,5.48,0,0,0,247,49.77a4.06,4.06,0,0,0,1,2.89,3.46,3.46,0,0,0,2.68,1.1,4.37,4.37,0,0,0,1.31-.19,6,6,0,0,0,1.33-.62c0-.18.05-.33.07-.47a3.17,3.17,0,0,1,.12-.46h-.16a4.62,4.62,0,0,1-1.19.83,2.84,2.84,0,0,1-1.2.25,2.29,2.29,0,0,1-1.87-.8,3.45,3.45,0,0,1-.67-2.27l0-.83h2.9c.57,0,1.13,0,1.69.05s1,.06,1.2.1h0a5.89,5.89,0,0,0,.11-.74,4.91,4.91,0,0,0,0-.74,3.27,3.27,0,0,0-.82-2.31A3,3,0,0,0,251.29,44.67Zm1.61,3.83h-4.35a5.22,5.22,0,0,1,.65-1.87,2.28,2.28,0,0,1,2-1.29,1.6,1.6,0,0,1,1.31.61,2.77,2.77,0,0,1,.46,1.72A4,4,0,0,1,252.9,48.5Z"/><path class="cls-1" d="M260.31,44.68a2.68,2.68,0,0,0-1.89,1.26,9.8,9.8,0,0,0-.65.89l0-.13c.19-.77.3-1.24.35-1.42s.08-.32.11-.41a5.21,5.21,0,0,1-.72.06,5,5,0,0,1-.71-.06,5.32,5.32,0,0,1,0,.89q0,.47-.3,2.16l-.21,1.29-.22,1.3c-.18,1-.29,1.66-.36,2s-.15.67-.27,1.09c.3,0,.56-.05.77-.05s.47,0,.77.05c0-.58,0-1,0-1.31s.12-.88.26-1.74l.18-1a6.86,6.86,0,0,1,.77-2.45,1.51,1.51,0,0,1,1.26-.83,2,2,0,0,1,.53.06,3.5,3.5,0,0,1,.56.25c0-.34-.05-.64-.05-.89s0-.55.05-.91A1.06,1.06,0,0,0,260.31,44.68Z"/><path class="cls-1" d="M267.53,44.87a4.43,4.43,0,0,1,0,.89q0,.47-.3,2.16l-.2,1.29-.23,1.3c-.17,1-.29,1.66-.35,2s-.16.67-.28,1.09c.31,0,.58-.05.8-.05s.49,0,.8.05q0-.78.06-1.23c0-.31.12-.91.25-1.82l.21-1.29.44-2.52c.1-.59.17-1,.21-1.16s.1-.41.17-.67a6.28,6.28,0,0,1-.79.06A6,6,0,0,1,267.53,44.87Z"/><path class="cls-1" d="M268.74,40.85a.79.79,0,0,0-.59.26.89.89,0,0,0-.25.64.85.85,0,0,0,.25.63.8.8,0,0,0,1.18,0,.85.85,0,0,0,.25-.63.89.89,0,0,0-.25-.64A.79.79,0,0,0,268.74,40.85Z"/><path class="cls-1" d="M275.83,44.68a3.58,3.58,0,0,0-2.4,1,6.14,6.14,0,0,0-.51.51l.2-.75c.05-.18.11-.37.18-.56a5.46,5.46,0,0,1-.73.06,5,5,0,0,1-.72-.06,5.41,5.41,0,0,1,0,.9c0,.31-.14,1-.3,2.15l-.2,1.29-.23,1.3c-.18,1-.3,1.66-.36,2s-.15.67-.27,1.09c.3,0,.56-.05.77-.05s.48,0,.78.05q0-.78.06-1.23c0-.31.11-.91.25-1.82l.2-1.29.12-.74a4.38,4.38,0,0,1,.9-2.22,2.17,2.17,0,0,1,1.72-.76,1.48,1.48,0,0,1,1.37.74,2.92,2.92,0,0,1,.22,2l-.15,1-.23,1.3c-.17,1-.29,1.66-.36,2s-.15.67-.27,1.09c.3,0,.56-.05.77-.05s.48,0,.78.05q0-.78.06-1.23c0-.31.12-.91.25-1.82l.2-1.29.22-1.26a3.09,3.09,0,0,0-.4-2.37A2.19,2.19,0,0,0,275.83,44.68Z"/><path class="cls-1" d="M291.09,41.07l-2,0h-1.4l-.72,0a4.2,4.2,0,0,1,0,.79c0,.24-.08.79-.2,1.64-.16,1.13-.36,2.41-.6,3.82-.26,1.69-.52,3.2-.77,4.51l-.28,1.29q-.06.26-.12.45l.68,0,1.31,0,1.92.05a7.35,7.35,0,0,0,5.41-2.09,7.22,7.22,0,0,0,2.1-5.36A4.87,4.87,0,0,0,295,42.4,5.45,5.45,0,0,0,291.09,41.07Zm2.18,9.78a5.62,5.62,0,0,1-4.37,1.89c-.86,0-1.61,0-2.26-.07.19-1.5.47-3.28.81-5.37s.65-3.84.95-5.36c.63,0,1.35-.06,2.18-.06a4.61,4.61,0,0,1,3.27,1.06A3.94,3.94,0,0,1,295,46,7,7,0,0,1,293.27,50.85Z"/><path class="cls-1" d="M300.66,40.85a.79.79,0,0,0-.59.26.93.93,0,0,0-.25.64.89.89,0,0,0,.25.63.8.8,0,0,0,1.18,0,.85.85,0,0,0,.25-.63.89.89,0,0,0-.25-.64A.79.79,0,0,0,300.66,40.85Z"/><path class="cls-1" d="M299.45,44.87a4.43,4.43,0,0,1,0,.89q0,.47-.3,2.16l-.2,1.29-.23,1.3c-.17,1-.29,1.66-.35,2s-.16.67-.28,1.09c.31,0,.58-.05.8-.05s.49,0,.8.05q0-.78.06-1.23c0-.31.12-.91.25-1.82l.21-1.29.44-2.52c.1-.59.17-1,.21-1.16s.1-.41.17-.67a6.28,6.28,0,0,1-.79.06A6,6,0,0,1,299.45,44.87Z"/><path class="cls-1" d="M309.23,44.76H307.5c-.16,0-.31,0-.45-.06a2.94,2.94,0,0,0-.6,0h0a3.49,3.49,0,0,0-2.49.91,3,3,0,0,0-1,2.32,2.47,2.47,0,0,0,.67,1.8,4.17,4.17,0,0,0,.53.41l-.38.2a1.67,1.67,0,0,0-.88,1.14,1,1,0,0,0,.55,1.11,2.78,2.78,0,0,0,.47.17,4.5,4.5,0,0,0-.73.36,2.18,2.18,0,0,0-1.18,1.6,1.91,1.91,0,0,0,.74,1.86,4,4,0,0,0,2.52.69,3.94,3.94,0,0,0,2.65-1,3.57,3.57,0,0,0,1.32-2.38,1.73,1.73,0,0,0-.53-1.59,3,3,0,0,0-2-.55h-1.67a1.37,1.37,0,0,1-.83-.21.65.65,0,0,1-.23-.61.47.47,0,0,1,.33-.43,3.18,3.18,0,0,1,1.07-.12,4.76,4.76,0,0,0,3-.8,2.65,2.65,0,0,0,1.08-2.26,2.49,2.49,0,0,0-.68-1.84l.44,0q.4,0,.75.06a2,2,0,0,1,.45.08V44.54a2.61,2.61,0,0,1-.56.15A3.07,3.07,0,0,1,309.23,44.76Zm-3.59,8.14a3.47,3.47,0,0,1,1.86.4,1.14,1.14,0,0,1,.52,1.17,2.21,2.21,0,0,1-.88,1.48,2.87,2.87,0,0,1-1.8.6,2.45,2.45,0,0,1-1.73-.53,1.76,1.76,0,0,1,.3-2.67A3,3,0,0,1,305.64,52.9ZM307.48,49a1.84,1.84,0,0,1-1.51.7,1.46,1.46,0,0,1-1.15-.47,1.89,1.89,0,0,1-.41-1.31,2.84,2.84,0,0,1,.57-1.85,1.84,1.84,0,0,1,1.51-.7,1.44,1.44,0,0,1,1.15.47,1.9,1.9,0,0,1,.41,1.32A2.79,2.79,0,0,1,307.48,49Z"/><path class="cls-1" d="M312.6,44.87a5.32,5.32,0,0,1,0,.89q0,.47-.3,2.16l-.21,1.29-.22,1.3c-.18,1-.3,1.66-.36,2s-.15.67-.27,1.09c.31,0,.58-.05.8-.05s.49,0,.8.05a12.21,12.21,0,0,1,.06-1.23c0-.31.11-.91.25-1.82l.2-1.29.44-2.52c.1-.59.17-1,.22-1.16s.09-.41.16-.67a6.28,6.28,0,0,1-.78.06A5.87,5.87,0,0,1,312.6,44.87Z"/><path class="cls-1" d="M313.81,40.85a.81.81,0,0,0-.6.26.93.93,0,0,0-.24.64.88.88,0,0,0,.24.63.77.77,0,0,0,.6.26.75.75,0,0,0,.59-.26.88.88,0,0,0,.24-.63.93.93,0,0,0-.24-.64A.79.79,0,0,0,313.81,40.85Z"/><path class="cls-1" d="M318.84,44.92h-.72l.06-.35c.08-.4.17-.79.26-1.15a5,5,0,0,1,.24-.73l-1.78.69a4.07,4.07,0,0,1,0,.69l-.07.85h-.36a3.19,3.19,0,0,1-.45,0,1.3,1.3,0,0,1-.31,0,1.89,1.89,0,0,1,0,.44,2.69,2.69,0,0,1-.1.45l.3-.06.37,0h.49l-.45,2.91-.32,1.9a3.87,3.87,0,0,0,.22,2.47,1.75,1.75,0,0,0,1.66.84,2.38,2.38,0,0,0,1.55-.63v-.64a1.54,1.54,0,0,1-1,.44,1.06,1.06,0,0,1-1.05-.67,3.51,3.51,0,0,1-.08-1.91l.33-2.11.45-2.61h.9a4.18,4.18,0,0,1,.51,0l.35.06c0-.16,0-.31,0-.43s0-.27.05-.44a1.71,1.71,0,0,1-.38,0Z"/><path class="cls-1" d="M327,52.92a.46.46,0,0,1-.47-.38,2.55,2.55,0,0,1,0-1.14l.36-2.31.21-1.24a3.73,3.73,0,0,0,.06-.8,2.4,2.4,0,0,0-.46-1.55,2.51,2.51,0,0,0-2.09-.83,4.47,4.47,0,0,0-1.32.23,6.94,6.94,0,0,0-1.41.67,2.76,2.76,0,0,1,0,.59,5.34,5.34,0,0,1-.14.59h.16a4,4,0,0,1,1.13-1,2.61,2.61,0,0,1,1.23-.31,1.63,1.63,0,0,1,1.38.59,2,2,0,0,1,.28,1.6l0,.21a.59.59,0,0,1-.15.28.49.49,0,0,1-.25.16l-2.64.69A3.74,3.74,0,0,0,321,50a2.14,2.14,0,0,0-.66,1.54,2.16,2.16,0,0,0,.62,1.62,2.25,2.25,0,0,0,1.66.61,3.17,3.17,0,0,0,1.84-.71,5.49,5.49,0,0,0,.81-.71,2.77,2.77,0,0,0,.15.76,1,1,0,0,0,.95.66,1.68,1.68,0,0,0,1.24-.56l-.16-.4A1.16,1.16,0,0,1,327,52.92Zm-1.31-3.82-.43,2.54a2.89,2.89,0,0,1-.75.77,2.25,2.25,0,0,1-1.35.54,1.28,1.28,0,0,1-1-.4,1.54,1.54,0,0,1-.37-1.08,1.59,1.59,0,0,1,.49-1.18,3.37,3.37,0,0,1,1.45-.77l2-.55Z"/><path class="cls-1" d="M331.46,39.88a5.56,5.56,0,0,1,0,.79c0,.31-.12,1.06-.28,2.25s-.37,2.42-.59,3.81l-.65,3.78c-.16.94-.28,1.56-.35,1.86s-.16.7-.3,1.19c.31,0,.58-.05.8-.05s.5,0,.8.05c0-.43,0-.79.05-1.1s.12-1,.25-2,.37-2.41.59-3.8q.47-2.84.87-5c.13-.64.21-1.05.25-1.23a3.93,3.93,0,0,1,.15-.59,6.56,6.56,0,0,1-.8.06A5.74,5.74,0,0,1,331.46,39.88Z"/></g></g></svg>