<svg xmlns="http://www.w3.org/2000/svg" viewBox="0 0 338.67 66.83"><defs><style>.cls-1{fill:#00263d}</style></defs><g id="Calque_2" data-name="Calque 2"><g id="Calque_1-2" data-name="Calque 1"><path class="cls-1" d="M335.9 20.57l-2-2.44c1-.17 2-.69 2-1.77s-.66-1.42-2.14-1.42h-2.06v6.38h.85v-3.11h.37l.77.87 1.14 1.43.61.81h1.11l-.19-.23zm-3.35-2.72v-2.56a8.37 8.37 0 011.42 0 1.1 1.1 0 011.03 1.18 1.36 1.36 0 01-1.23 1.33 5.22 5.22 0 01-1.22.05z"/><path class="cls-1" d="M333.88 13.47a4.63 4.63 0 104.79 4.62 4.71 4.71 0 00-4.79-4.62zm0 8.78a4.16 4.16 0 114.3-4.16 4.23 4.23 0 01-4.3 4.16zM86.29 13.25h-.87L73.61 38.83a13 13 0 011.33-.11c.45 0 .87.07 1.4.11 1.06-3.44 2.42-6.66 3.74-9.88h9.62c1.51 3.33 2.87 6.84 4 9.88.65 0 1.29-.11 2-.11s1.25.07 2 .11zM80.8 27.41L84.93 18l4.2 9.37zM123.61 13.8c-.38 0-.72.11-1.06.11s-.72-.08-1.06-.11v18.84h-.38l-18-18.84h-1.47v25a8.62 8.62 0 011.06-.11 10.61 10.61 0 011.06.11V19.1h.38l16.35 17.49c.79.85 1.55 1.72 2 2.24h1.14zM140.22 13.25h-.87l-11.81 25.58a12.56 12.56 0 011.32-.11c.45 0 .87.07 1.4.11 1.06-3.44 2.42-6.66 3.75-9.88h9.61c1.52 3.33 2.88 6.84 4 9.88.64 0 1.28-.11 2-.11s1.25.07 2 .11zm-5.49 14.16l4.12-9.41 4.2 9.37zM168.83 37.62c0-.37.07-.7.11-1.1-1.21.15-2.38.29-3.59.33-2.27.07-4.55.22-6.85.15V13.8c-.61 0-1.14.11-1.67.11s-1.14-.08-1.67-.11v24.92h13.78a10.24 10.24 0 01-.11-1.1zM185.86 39.27c8.44 0 14.42-5.35 14.42-13.51 0-8.78-7.23-12.51-14.34-12.51-7.84 0-14 5.05-14 13.06-.01 7.83 5.55 12.96 13.92 12.96zm.45-24.82a10.2 10.2 0 017.88 3.55c2 2.46 2.38 5 2.38 8.06.26 4-2.61 12-10.6 12-5.64 0-10.33-3.88-10.33-11.31s4.01-12.3 10.67-12.3zM218.51 14.64a11.48 11.48 0 018.49 3.55h.41c.27-1 .53-1.9.88-2.82-.84-.51-4-2.12-9.66-2.12-8.4 0-14.76 4.5-14.76 13.06 0 7.43 4.39 13 14 13a32.49 32.49 0 0010.29-1.69V27.23c-.6 0-1.13.11-1.66.11s-1.14-.08-1.67-.11v9.4a13.31 13.31 0 01-5.9 1.25c-7.46 0-11.32-4.51-11.32-11.75 0-7.39 4.47-11.49 10.9-11.49zM249.42 38.83a12.92 12.92 0 011.29-.11c.38 0 .79.07 1.25.11l7.34-20.53h.3c2.39 7.17 6.4 19.1 6.85 20.53.42 0 .83-.11 1.25-.11s.79.07 1.25.11l7.23-20.35c.57-1.61 1.21-3.18 1.89-4.68-.49 0-.91.11-1.32.11s-.91-.08-1.33-.11l-.91 3-4.42 13.79c-.46 1.39-.95 2.78-1.52 4.17h-.34c-3.41-10-6.47-18.37-7.19-21-.38 0-.72.11-1.06.11s-.76-.08-1.1-.11c-.91 3.11-4.92 14.27-7.34 21h-.34L248 25.1l-2.23-7.42c-.38-1.32-.72-2.64-1.14-3.88-.64 0-1.21.11-1.74.11s-1.21-.08-1.78-.11l6.8 20.2c.53 1.57.98 3.14 1.51 4.83zM294.84 29c1.51 3.33 2.87 6.84 4 9.88.64 0 1.29-.11 2-.11s1.25.07 2 .11l-11.41-25.63h-.87l-11.81 25.58a12.79 12.79 0 011.32-.11c.46 0 .88.07 1.41.11 1.06-3.44 2.42-6.66 3.74-9.88zm-4.77-11l4.2 9.37h-8.33zM316.37 27.59a29.92 29.92 0 012.12-3.66l4.16-6.47c.84-1.25 1.75-2.49 2.69-3.66-.53 0-1 .11-1.48.11s-1-.08-1.47-.11c-1.1 1.94-5.94 10.79-7.23 12.26-1.16-1.76-5.72-9.45-7.16-12.26-.76 0-1.44.11-2.08.11s-1.44-.08-2.12-.11l9.2 14.49v10.54c.53 0 1.1-.11 1.67-.11s1.05.07 1.66.11zM0 66.83h66.83V0H0zM1.15 1.15h64.53v64.53H1.15z"/><path class="cls-1" d="M13.07 32.56l6.71 13.26h-6.71v7.43h19.88L13.07 13.56v19zM45.14 26.37L38.7 13.56h-7.45v12.79l-6.43-12.79h-9.6l19.94 39.69h6.63v-7.73l4.85 7.73h6.99V13.56h-8.49v12.81zM78.52 41.06h-3.11c0 .17 0 .37-.06.62s-.1.84-.23 1.81c-.16 1.13-.36 2.41-.6 3.82-.27 1.69-.53 3.2-.78 4.51q-.18.95-.24 1.2c0 .17-.08.35-.12.54.3 0 .56-.05.78-.05s.48 0 .79.05a5 5 0 010-.62c0-.24.1-.85.23-1.81s.31-2.1.51-3.3q.54 0 1.23.06a5.24 5.24 0 003.52-1.1 3.76 3.76 0 001.3-3 2.53 2.53 0 00-.74-2.06 3.73 3.73 0 00-2.48-.67zm.86 5.23a3.67 3.67 0 01-2.61.88h-.93q.5-3 .93-5.26a7.46 7.46 0 011.23-.08 2.76 2.76 0 011.79.48 1.86 1.86 0 01.58 1.52 3.21 3.21 0 01-.99 2.46zM84.1 44.87a5.32 5.32 0 010 .89q0 .47-.3 2.16l-.21 1.29-.22 1.3c-.18 1-.29 1.66-.36 2s-.15.67-.27 1.09c.31 0 .58-.05.8-.05s.49 0 .8.05q0-.78.06-1.23c0-.31.11-.91.25-1.82l.21-1.29.43-2.52c.1-.59.17-1 .21-1.16s.1-.41.18-.67a6.42 6.42 0 01-.79.06 5.87 5.87 0 01-.79-.1zM85.31 40.85a.81.81 0 00-.6.26.93.93 0 00-.24.64.88.88 0 00.24.63.77.77 0 00.6.26.75.75 0 00.59-.26.88.88 0 00.24-.63.93.93 0 00-.24-.64.79.79 0 00-.59-.26zM91.66 44.67a4.23 4.23 0 00-3.34 1.51A5.68 5.68 0 0087 50a3.59 3.59 0 001 2.67 3.44 3.44 0 002.61 1 4.2 4.2 0 003.33-1.51 5.69 5.69 0 001.32-3.86 3.74 3.74 0 00-1-2.68 3.44 3.44 0 00-2.6-.95zm1.29 7a2.59 2.59 0 01-2.28 1.39 2 2 0 01-1.67-.69 3 3 0 01-.59-2 6.84 6.84 0 01.87-3.66 2.61 2.61 0 012.29-1.39 2 2 0 011.65.72 3 3 0 01.59 2A6.78 6.78 0 0193 51.7zM101.79 44.68a3.58 3.58 0 00-2.4 1 6.14 6.14 0 00-.51.51l.2-.75c0-.18.11-.37.18-.56a5.46 5.46 0 01-.73.06 5 5 0 01-.72-.06 4.51 4.51 0 010 .9c0 .31-.13 1-.29 2.15l-.21 1.29-.22 1.3c-.18 1-.3 1.66-.36 2s-.16.67-.27 1.09c.3 0 .55-.05.77-.05s.48 0 .78.05q0-.78.06-1.23c0-.31.12-.91.25-1.82l.2-1.29.12-.74a4.38 4.38 0 01.9-2.22 2.17 2.17 0 011.72-.76 1.48 1.48 0 011.37.74 3 3 0 01.22 2l-.16 1-.22 1.3c-.17 1-.29 1.66-.36 2s-.15.67-.27 1.09c.3 0 .56-.05.77-.05s.48 0 .78.05q0-.78.06-1.23c0-.31.11-.91.25-1.82l.2-1.29.2-1.34a3.09 3.09 0 00-.4-2.37 2.19 2.19 0 00-1.91-.95zM110.12 44.67a3.87 3.87 0 00-3.12 1.44 5.43 5.43 0 00-1.22 3.66 4.06 4.06 0 001 2.89 3.43 3.43 0 002.67 1.1 4.32 4.32 0 001.31-.19 6.05 6.05 0 001.34-.62c0-.18 0-.33.06-.47s.07-.28.13-.46h-.17a4.58 4.58 0 01-1.18.83 2.85 2.85 0 01-1.21.25 2.31 2.31 0 01-1.87-.8 3.51 3.51 0 01-.66-2.27v-.83h2.9c.57 0 1.14 0 1.69.05s1 .06 1.21.1a6.06 6.06 0 00.1-.74 7 7 0 000-.74 3.32 3.32 0 00-.82-2.31 3 3 0 00-2.16-.89zm1.6 3.83h-4.35a5.22 5.22 0 01.65-1.87 2.3 2.3 0 012-1.29 1.59 1.59 0 011.3.61 2.77 2.77 0 01.47 1.72 4.08 4.08 0 01-.07.83zM110.1 44.67zM118.57 44.67a3.89 3.89 0 00-3.09 1.44 5.48 5.48 0 00-1.22 3.66 4.06 4.06 0 001 2.89 3.46 3.46 0 002.68 1.1 4.37 4.37 0 001.31-.19 6 6 0 001.35-.57c0-.18.05-.33.07-.47a3.17 3.17 0 01.12-.46h-.16a4.62 4.62 0 01-1.19.83 2.84 2.84 0 01-1.2.25 2.29 2.29 0 01-1.87-.8 3.45 3.45 0 01-.67-2.35v-.83h2.9c.57 0 1.13 0 1.69.05s1 .06 1.2.1a5.89 5.89 0 00.11-.74 4.91 4.91 0 000-.74 3.27 3.27 0 00-.82-2.31 3 3 0 00-2.21-.86zm1.61 3.83h-4.35a5.22 5.22 0 01.64-1.87 2.3 2.3 0 012-1.29 1.58 1.58 0 011.3.61 2.71 2.71 0 01.47 1.72 4 4 0 01-.06.83zM118.55 44.67zM127.59 44.68a2.71 2.71 0 00-1.9 1.26 9.79 9.79 0 00-.64.89v-.13c.18-.77.3-1.24.35-1.42s.08-.32.11-.41a5.21 5.21 0 01-.72.06 4.85 4.85 0 01-.71-.06 5.32 5.32 0 010 .89q0 .47-.3 2.16l-.21 1.29-.22 1.3c-.18 1-.3 1.66-.36 2s-.15.67-.27 1.09c.3 0 .56-.05.77-.05s.47 0 .77.05v-1.31c0-.31.12-.88.26-1.74l.18-1a6.86 6.86 0 01.77-2.45 1.51 1.51 0 011.26-.83 2 2 0 01.53.06 3.5 3.5 0 01.56.25v-.89-.91a1.06 1.06 0 00-.23-.1zM136 40.85a.79.79 0 00-.59.26.89.89 0 00-.25.64.85.85 0 00.25.63.8.8 0 001.18 0 .89.89 0 00.25-.63.93.93 0 00-.25-.64.79.79 0 00-.59-.26zM134.81 44.87a4.43 4.43 0 010 .89q0 .47-.3 2.16l-.2 1.29-.23 1.3c-.17 1-.29 1.66-.35 2s-.16.67-.28 1.09c.31 0 .58-.05.8-.05s.49 0 .8.05q0-.78.06-1.23c0-.31.12-.91.25-1.82l.21-1.29.43-2.56c.09-.59.17-1 .21-1.16s.09-.41.17-.67a6.42 6.42 0 01-.79.06 5.87 5.87 0 01-.78-.06zM143.11 44.68a3.58 3.58 0 00-2.4 1 6.14 6.14 0 00-.51.51l.2-.75c0-.18.11-.37.18-.56a5.46 5.46 0 01-.73.06 5 5 0 01-.72-.06 4.51 4.51 0 010 .9c0 .31-.13 1-.29 2.15l-.21 1.29-.22 1.3c-.18 1-.3 1.66-.36 2s-.16.67-.27 1.09c.3 0 .56-.05.77-.05s.48 0 .78.05q0-.78.06-1.23c0-.31.12-.91.25-1.82l.2-1.29.12-.74a4.38 4.38 0 01.9-2.22 2.16 2.16 0 011.72-.76 1.48 1.48 0 011.37.74 3 3 0 01.22 2l-.16 1-.22 1.3c-.17 1-.3 1.66-.36 2s-.15.67-.27 1.09c.3 0 .56-.05.77-.05s.48 0 .78.05q0-.78.06-1.23c0-.31.11-.91.24-1.82l.21-1.29.22-1.26a3.09 3.09 0 00-.4-2.37 2.19 2.19 0 00-1.93-1.03zM161 51.82c-.34-1.29-.71-2.78-1.11-4.46-.59-2.49-1-4.57-1.37-6.26h-.37q-1.38 2.53-3.56 6.25c-1 1.68-1.89 3.17-2.69 4.47l-.85 1.36-.24.38a5.74 5.74 0 01.65-.05 6.06 6.06 0 01.67.05c.15-.37.27-.65.36-.82s.24-.48.48-.92c.46-.89 1-1.85 1.57-2.89a14.78 14.78 0 012.45-.19 18.54 18.54 0 011.95.12l.6 3c.09.46.15.78.17 1s0 .44.09.79c.33 0 .62-.05.86-.05s.53 0 .86.05a2.28 2.28 0 01-.15-.41zm-4.19-3.94a16.26 16.26 0 01-1.65-.1l.29-.51q1.22-2.19 2.24-3.92c.28 1.15.59 2.46.91 3.92l.11.52a18.64 18.64 0 01-1.9.09zM168.46 44.68a3.54 3.54 0 00-2.39 1 6.26 6.26 0 00-.52.51l.2-.75.18-.56a5.22 5.22 0 01-.73.06 5 5 0 01-.71-.06 5.41 5.41 0 010 .9c0 .31-.13 1-.29 2.15l-.2 1.28-.23 1.3c-.17 1-.29 1.66-.35 2s-.16.67-.28 1.09c.3 0 .56-.05.78-.05s.47 0 .78.05a9.81 9.81 0 01.06-1.23c0-.31.11-.91.24-1.82l.21-1.29.11-.74a4.3 4.3 0 01.91-2.22 2.15 2.15 0 011.71-.76 1.47 1.47 0 011.37.74 3 3 0 01.23 2l-.16 1-.22 1.3c-.18 1-.3 1.66-.36 2s-.16.67-.27 1.09c.3 0 .55-.05.77-.05s.47 0 .78.05a9.81 9.81 0 01.06-1.23c0-.31.11-.91.24-1.82l.21-1.29.21-1.26a3.09 3.09 0 00-.39-2.37 2.22 2.22 0 00-1.95-1.02zM178.91 52.92a.48.48 0 01-.47-.38 2.71 2.71 0 010-1.14l.36-2.31.21-1.24a4.56 4.56 0 00.07-.8 2.41 2.41 0 00-.47-1.55 2.5 2.5 0 00-2.09-.83 4.36 4.36 0 00-1.31.23 6.76 6.76 0 00-1.42.67 2.23 2.23 0 010 .59 5.34 5.34 0 01-.14.59h.17a4 4 0 011.12-1 2.61 2.61 0 011.23-.31 1.64 1.64 0 011.39.59 2.05 2.05 0 01.28 1.6v.21a.67.67 0 01-.14.28.53.53 0 01-.25.16l-2.65.69A3.66 3.66 0 00173 50a2.1 2.1 0 00-.66 1.54 2.16 2.16 0 00.61 1.62 2.27 2.27 0 001.66.61 3.17 3.17 0 001.84-.71 5 5 0 00.81-.71 2.77 2.77 0 00.15.76 1 1 0 001 .66 1.7 1.7 0 001.25-.56l-.16-.4a1.21 1.21 0 01-.59.11zm-1.31-3.82l-.43 2.54a2.89 2.89 0 01-.75.77 2.25 2.25 0 01-1.35.54 1.28 1.28 0 01-1-.4 1.54 1.54 0 01-.37-1.08 1.59 1.59 0 01.49-1.18 3.37 3.37 0 011.45-.77l2-.55zM183.41 39.88a3.63 3.63 0 010 .79c0 .31-.12 1.06-.28 2.25s-.36 2.42-.59 3.81l-.65 3.78c-.16.94-.28 1.56-.34 1.86s-.17.7-.3 1.19c.31 0 .57-.05.79-.05s.5 0 .81.05a8.85 8.85 0 01.05-1.1c0-.3.11-1 .25-2s.36-2.41.58-3.8q.47-2.84.87-5c.13-.64.21-1.05.25-1.23a5.69 5.69 0 01.15-.59 6.42 6.42 0 01-.79.06 5.87 5.87 0 01-.8-.02zM190.26 44.67a4.23 4.23 0 00-3.34 1.51 5.73 5.73 0 00-1.31 3.82 3.67 3.67 0 001 2.67 3.44 3.44 0 002.61 1 4.18 4.18 0 003.33-1.51 5.69 5.69 0 001.32-3.86 3.69 3.69 0 00-1-2.68 3.44 3.44 0 00-2.61-.95zm1.3 7a2.6 2.6 0 01-2.29 1.39 2 2 0 01-1.65-.72 3 3 0 01-.6-2 6.84 6.84 0 01.87-3.66 2.62 2.62 0 012.29-1.39 2 2 0 011.65.72 3 3 0 01.6 2 7 7 0 01-.87 3.69zM197 50.5a3.26 3.26 0 011.07-.12 4.77 4.77 0 003-.8 2.66 2.66 0 001.07-2.26 2.49 2.49 0 00-.68-1.84h.44q.4 0 .75.06a2.32 2.32 0 01.46.08v-1.08a2.31 2.31 0 01-.56.15 3.07 3.07 0 01-.65.07h-1.72c-.17 0-.32 0-.46-.06a2.91 2.91 0 00-.6 0 3.52 3.52 0 00-2.49.91 3 3 0 00-1 2.32 2.43 2.43 0 00.67 1.8 4.07 4.07 0 00.52.41l-.37.2a1.64 1.64 0 00-.88 1.14 1 1 0 00.54 1.11 3.14 3.14 0 00.47.17 4.5 4.5 0 00-.73.36 2.2 2.2 0 00-1.18 1.6 1.93 1.93 0 00.74 1.86 4 4 0 002.53.69 4 4 0 002.65-1 3.6 3.6 0 001.31-2.38 1.7 1.7 0 00-.53-1.59 2.94 2.94 0 00-2-.55h-1.66a1.35 1.35 0 01-.83-.21.63.63 0 01-.24-.61.5.5 0 01.36-.43zm.63-4.44a1.82 1.82 0 011.5-.7 1.44 1.44 0 011.15.47 1.9 1.9 0 01.42 1.32 2.74 2.74 0 01-.58 1.84 1.83 1.83 0 01-1.5.7 1.46 1.46 0 01-1.16-.47 1.94 1.94 0 01-.41-1.31 2.84 2.84 0 01.58-1.85zm.65 6.84a3.54 3.54 0 011.87.4 1.15 1.15 0 01.51 1.17 2.17 2.17 0 01-.88 1.48 2.84 2.84 0 01-1.79.6 2.5 2.5 0 01-1.74-.53 1.6 1.6 0 01-.45-1.48 1.59 1.59 0 01.76-1.19 3 3 0 011.72-.45zM205 51.69a1.08 1.08 0 00-.48.49l-.08.15-1.88 4.13.39.27 2.57-3.73.09-.13a1.13 1.13 0 00.19-.69.62.62 0 00-.29-.48.53.53 0 00-.51-.01zM216.64 52.72h-1.76c.21-1.53.49-3.31.82-5.36.27-1.71.53-3.23.79-4.56.13-.63.21-1 .24-1.21s.08-.35.14-.53h-1.56c0 .16 0 .37-.05.61s-.11.85-.24 1.82c-.17 1.15-.36 2.43-.6 3.87-.27 1.7-.54 3.22-.79 4.56-.07.36-.13.63-.17.81s-.13.48-.26.92c.25 0 .6-.07 1-.1s.85 0 1.23 0h2.51l1.27.06a1.77 1.77 0 010-.52 2.36 2.36 0 01.15-.52c-.23 0-.63.07-1.19.1s-1.01.05-1.53.05zM225 44.67a3.89 3.89 0 00-3.09 1.44 5.48 5.48 0 00-1.22 3.66 4.06 4.06 0 001 2.89 3.46 3.46 0 002.68 1.1 4.37 4.37 0 001.31-.19A6 6 0 00227 53c0-.18 0-.33.07-.47a3.17 3.17 0 01.12-.46h-.16a4.62 4.62 0 01-1.19.83 2.84 2.84 0 01-1.2.25 2.29 2.29 0 01-1.87-.8 3.45 3.45 0 01-.67-2.27v-.83h2.9c.57 0 1.13 0 1.69.05s1 .06 1.2.1a5.89 5.89 0 00.11-.74 4.91 4.91 0 000-.74 3.27 3.27 0 00-.82-2.31 3 3 0 00-2.18-.94zm1.61 3.83h-4.35a5.22 5.22 0 01.64-1.87 2.3 2.3 0 012-1.29 1.6 1.6 0 011.31.61 2.77 2.77 0 01.46 1.72 4 4 0 01-.07.83zM225 44.67zM235.57 52.92a.48.48 0 01-.48-.38 2.88 2.88 0 010-1.14l.37-2.31.21-1.24a3.73 3.73 0 00.06-.8 2.4 2.4 0 00-.46-1.55 2.52 2.52 0 00-2.09-.83 4.42 4.42 0 00-1.32.23 7 7 0 00-1.42.67 2.82 2.82 0 010 .59c0 .16-.08.36-.14.59h.16a4 4 0 011.13-1 2.55 2.55 0 011.23-.31 1.63 1.63 0 011.38.59 2 2 0 01.28 1.6v.21a.57.57 0 01-.14.28.53.53 0 01-.25.16l-2.64.69a3.7 3.7 0 00-1.79 1 2.14 2.14 0 00-.66 1.54 2.16 2.16 0 00.62 1.62 2.23 2.23 0 001.65.61 3.2 3.2 0 001.85-.71 6.06 6.06 0 00.81-.71 2.18 2.18 0 00.15.76 1 1 0 00.95.66 1.68 1.68 0 001.24-.56l-.16-.4a1.2 1.2 0 01-.54.14zm-1.31-3.82l-.44 2.54a2.85 2.85 0 01-.74.77 2.3 2.3 0 01-1.35.54 1.3 1.3 0 01-1-.4 1.7 1.7 0 01.13-2.26 3.31 3.31 0 011.45-.77l2-.55zM245.31 39.88a5.61 5.61 0 010 .79c0 .3-.13 1.06-.29 2.25s-.32 2.2-.53 3.45a2.58 2.58 0 00-.22-.44 2.49 2.49 0 00-2.27-1.26 3.69 3.69 0 00-3 1.5 5.79 5.79 0 00-1.22 3.69 4.46 4.46 0 00.84 2.82 2.59 2.59 0 002.16 1.08 3.06 3.06 0 002.46-1.22 7.34 7.34 0 00.48-.71l-.3 1.14c-.06.2-.13.39-.2.59a7.06 7.06 0 01.73-.05 7.25 7.25 0 01.73.05v-1.1c0-.31.12-1 .25-2s.36-2.41.59-3.8q.47-2.84.87-5c.12-.64.21-1.05.24-1.23a5.89 5.89 0 01.16-.59 6.56 6.56 0 01-.8.06 5.61 5.61 0 01-.68-.02zm-1.18 9.19a6.8 6.8 0 01-1 2.87 2.13 2.13 0 01-1.78 1 1.78 1.78 0 01-1.55-.79 3.88 3.88 0 01-.55-2.24 5.46 5.46 0 01.89-3.13 2.57 2.57 0 012.13-1.32 1.71 1.71 0 011.65 1 4.18 4.18 0 01.21 2.61zM251.27 44.67zM251.29 44.67a3.89 3.89 0 00-3.09 1.44 5.48 5.48 0 00-1.2 3.66 4.06 4.06 0 001 2.89 3.46 3.46 0 002.68 1.1 4.37 4.37 0 001.31-.19 6 6 0 001.33-.62c0-.18.05-.33.07-.47a3.17 3.17 0 01.12-.46h-.16a4.62 4.62 0 01-1.19.83 2.84 2.84 0 01-1.2.25 2.29 2.29 0 01-1.87-.8 3.45 3.45 0 01-.67-2.27v-.83h2.9c.57 0 1.13 0 1.69.05s1 .06 1.2.1a5.89 5.89 0 00.11-.74 4.91 4.91 0 000-.74 3.27 3.27 0 00-.82-2.31 3 3 0 00-2.21-.89zm1.61 3.83h-4.35a5.22 5.22 0 01.65-1.87 2.28 2.28 0 012-1.29 1.6 1.6 0 011.31.61 2.77 2.77 0 01.46 1.72 4 4 0 01-.07.83zM260.31 44.68a2.68 2.68 0 00-1.89 1.26 9.8 9.8 0 00-.65.89v-.13c.19-.77.3-1.24.35-1.42s.08-.32.11-.41a5.21 5.21 0 01-.72.06 5 5 0 01-.71-.06 5.32 5.32 0 010 .89q0 .47-.3 2.16l-.21 1.29-.22 1.3c-.18 1-.29 1.66-.36 2s-.15.67-.27 1.09c.3 0 .56-.05.77-.05s.47 0 .77.05v-1.31c0-.31.12-.88.26-1.74l.18-1a6.86 6.86 0 01.77-2.45 1.51 1.51 0 011.26-.83 2 2 0 01.53.06 3.5 3.5 0 01.56.25c0-.34-.05-.64-.05-.89s0-.55.05-.91a1.06 1.06 0 00-.23-.1zM267.53 44.87a4.43 4.43 0 010 .89q0 .47-.3 2.16l-.2 1.29-.23 1.3c-.17 1-.29 1.66-.35 2s-.16.67-.28 1.09c.31 0 .58-.05.8-.05s.49 0 .8.05q0-.78.06-1.23c0-.31.12-.91.25-1.82l.21-1.29.44-2.52c.1-.59.17-1 .21-1.16s.1-.41.17-.67a6.28 6.28 0 01-.79.06 6 6 0 01-.79-.1zM268.74 40.85a.79.79 0 00-.59.26.89.89 0 00-.25.64.85.85 0 00.25.63.8.8 0 001.18 0 .85.85 0 00.25-.63.89.89 0 00-.25-.64.79.79 0 00-.59-.26zM275.83 44.68a3.58 3.58 0 00-2.4 1 6.14 6.14 0 00-.51.51l.2-.75c.05-.18.11-.37.18-.56a5.46 5.46 0 01-.73.06 5 5 0 01-.72-.06 5.41 5.41 0 010 .9c0 .31-.14 1-.3 2.15l-.2 1.29-.23 1.3c-.18 1-.3 1.66-.36 2s-.15.67-.27 1.09c.3 0 .56-.05.77-.05s.48 0 .78.05q0-.78.06-1.23c0-.31.11-.91.25-1.82l.2-1.29.12-.74a4.38 4.38 0 01.9-2.22 2.17 2.17 0 011.72-.76 1.48 1.48 0 011.37.74 2.92 2.92 0 01.22 2l-.15 1-.23 1.3c-.17 1-.29 1.66-.36 2s-.15.67-.27 1.09c.3 0 .56-.05.77-.05s.48 0 .78.05q0-.78.06-1.23c0-.31.12-.91.25-1.82l.2-1.29.22-1.26a3.09 3.09 0 00-.4-2.37 2.19 2.19 0 00-1.92-1.03zM291.09 41.07h-4.12a4.2 4.2 0 010 .79c0 .24-.08.79-.2 1.64-.16 1.13-.36 2.41-.6 3.82-.26 1.69-.52 3.2-.77 4.51l-.28 1.29q-.06.26-.12.45H286.99l1.92.05a7.35 7.35 0 005.41-2.09 7.22 7.22 0 002.1-5.36A4.87 4.87 0 00295 42.4a5.45 5.45 0 00-3.91-1.33zm2.18 9.78a5.62 5.62 0 01-4.37 1.89c-.86 0-1.61 0-2.26-.07.19-1.5.47-3.28.81-5.37s.65-3.84.95-5.36c.63 0 1.35-.06 2.18-.06a4.61 4.61 0 013.27 1.06A3.94 3.94 0 01295 46a7 7 0 01-1.73 4.85zM300.66 40.85a.79.79 0 00-.59.26.93.93 0 00-.25.64.89.89 0 00.25.63.8.8 0 001.18 0 .85.85 0 00.25-.63.89.89 0 00-.25-.64.79.79 0 00-.59-.26zM299.45 44.87a4.43 4.43 0 010 .89q0 .47-.3 2.16l-.2 1.29-.23 1.3c-.17 1-.29 1.66-.35 2s-.16.67-.28 1.09c.31 0 .58-.05.8-.05s.49 0 .8.05q0-.78.06-1.23c0-.31.12-.91.25-1.82l.21-1.29.44-2.52c.1-.59.17-1 .21-1.16s.1-.41.17-.67a6.28 6.28 0 01-.79.06 6 6 0 01-.79-.1zM309.23 44.76h-1.73c-.16 0-.31 0-.45-.06a2.94 2.94 0 00-.6 0 3.49 3.49 0 00-2.49.91 3 3 0 00-1 2.32 2.47 2.47 0 00.67 1.8 4.17 4.17 0 00.53.41l-.38.2a1.67 1.67 0 00-.88 1.14 1 1 0 00.55 1.11 2.78 2.78 0 00.47.17 4.5 4.5 0 00-.73.36 2.18 2.18 0 00-1.18 1.6 1.91 1.91 0 00.74 1.86 4 4 0 002.52.69 3.94 3.94 0 002.65-1 3.57 3.57 0 001.32-2.38 1.73 1.73 0 00-.53-1.59 3 3 0 00-2-.55h-1.67a1.37 1.37 0 01-.83-.21.65.65 0 01-.23-.61.47.47 0 01.33-.43 3.18 3.18 0 011.07-.12 4.76 4.76 0 003-.8 2.65 2.65 0 001.08-2.26 2.49 2.49 0 00-.68-1.84h.44q.4 0 .75.06a2 2 0 01.45.08v-1.08a2.61 2.61 0 01-.56.15 3.07 3.07 0 01-.63.07zm-3.59 8.14a3.47 3.47 0 011.86.4 1.14 1.14 0 01.52 1.17 2.21 2.21 0 01-.88 1.48 2.87 2.87 0 01-1.8.6 2.45 2.45 0 01-1.73-.53 1.76 1.76 0 01.3-2.67 3 3 0 011.73-.45zm1.84-3.9a1.84 1.84 0 01-1.51.7 1.46 1.46 0 01-1.15-.47 1.89 1.89 0 01-.41-1.31 2.84 2.84 0 01.57-1.85 1.84 1.84 0 011.51-.7 1.44 1.44 0 011.15.47 1.9 1.9 0 01.41 1.32 2.79 2.79 0 01-.57 1.84zM312.6 44.87a5.32 5.32 0 010 .89q0 .47-.3 2.16l-.21 1.29-.22 1.3c-.18 1-.3 1.66-.36 2s-.15.67-.27 1.09c.31 0 .58-.05.8-.05s.49 0 .8.05a12.21 12.21 0 01.06-1.23c0-.31.11-.91.25-1.82l.2-1.29.44-2.52c.1-.59.17-1 .22-1.16s.09-.41.16-.67a6.28 6.28 0 01-.78.06 5.87 5.87 0 01-.79-.1zM313.81 40.85a.81.81 0 00-.6.26.93.93 0 00-.24.64.88.88 0 00.24.63.77.77 0 00.6.26.75.75 0 00.59-.26.88.88 0 00.24-.63.93.93 0 00-.24-.64.79.79 0 00-.59-.26zM318.84 44.92h-.72l.06-.35c.08-.4.17-.79.26-1.15a5 5 0 01.24-.73l-1.78.69a4.07 4.07 0 010 .69l-.07.85h-.36a3.19 3.19 0 01-.45 0 1.3 1.3 0 01-.31 0 1.89 1.89 0 010 .44 2.69 2.69 0 01-.1.45l.3-.06h.86l-.45 2.91-.32 1.9a3.87 3.87 0 00.22 2.47 1.75 1.75 0 001.66.84 2.38 2.38 0 001.55-.63v-.64a1.54 1.54 0 01-1 .44 1.06 1.06 0 01-1.05-.67 3.51 3.51 0 01-.08-1.91l.33-2.11.45-2.61h.9a4.18 4.18 0 01.51 0l.35.06v-.43c0-.12 0-.27.05-.44a1.71 1.71 0 01-.38 0zM327 52.92a.46.46 0 01-.47-.38 2.55 2.55 0 010-1.14l.36-2.31.21-1.24a3.73 3.73 0 00.06-.8 2.4 2.4 0 00-.46-1.55 2.51 2.51 0 00-2.09-.83 4.47 4.47 0 00-1.32.23 6.94 6.94 0 00-1.41.67 2.76 2.76 0 010 .59 5.34 5.34 0 01-.14.59h.16a4 4 0 011.13-1 2.61 2.61 0 011.23-.31 1.63 1.63 0 011.38.59 2 2 0 01.28 1.6v.21a.59.59 0 01-.15.28.49.49 0 01-.25.16l-2.64.69A3.74 3.74 0 00321 50a2.14 2.14 0 00-.66 1.54 2.16 2.16 0 00.62 1.62 2.25 2.25 0 001.66.61 3.17 3.17 0 001.84-.71 5.49 5.49 0 00.81-.71 2.77 2.77 0 00.15.76 1 1 0 00.95.66 1.68 1.68 0 001.24-.56l-.16-.4a1.16 1.16 0 01-.45.11zm-1.31-3.82l-.43 2.54a2.89 2.89 0 01-.75.77 2.25 2.25 0 01-1.35.54 1.28 1.28 0 01-1-.4 1.54 1.54 0 01-.37-1.08 1.59 1.59 0 01.49-1.18 3.37 3.37 0 011.45-.77l2-.55zM331.46 39.88a5.56 5.56 0 010 .79c0 .31-.12 1.06-.28 2.25s-.37 2.42-.59 3.81l-.65 3.78c-.16.94-.28 1.56-.35 1.86s-.16.7-.3 1.19c.31 0 .58-.05.8-.05s.5 0 .8.05c0-.43 0-.79.05-1.1s.12-1 .25-2 .37-2.41.59-3.8q.47-2.84.87-5c.13-.64.21-1.05.25-1.23a3.93 3.93 0 01.15-.59 6.56 6.56 0 01-.8.06 5.74 5.74 0 01-.79-.02z"/></g></g></svg>