<svg id="Layer_1" data-name="Layer 1" xmlns="http://www.w3.org/2000/svg" viewBox="0 0 768.82 223.13"><defs><style>.cls-1{fill:#1d1d1b}</style></defs><path class="cls-1" d="M132.66 130.63c13.57 0 15.09-1.63 15.09-10.8v-1.7c0-9.32-1.6-10.72-15.17-10.72h-15.81v23.22zm-15.89 23.81h-4.07v-50.29h20.51c15.5 0 18.61 2.14 18.61 14v1.56c0 11.83-3.75 14.12-18.52 14.12h-16.53zM183.05 151.56c14.53 0 17.24-2.59 17.24-20.56v-3.41c0-18-2.71-20.55-17.24-20.55h-1.44c-14.53 0-17.25 2.59-17.25 20.55V131c0 18 2.72 20.56 17.25 20.56zm-1.44 3.33c-17.41 0-21.4-3.63-21.4-23.89v-3.33c0-20.34 4-24 21.4-24h1.44c17.4 0 21.4 3.62 21.4 24V131c0 20.26-4 23.89-21.4 23.89zM234.65 154.89c-17.17 0-21-3.78-21-24v-3.25c0-20.26 4.15-24 21.07-24h1.44c15.49 0 19.33 3.11 19.33 13.68v1h-4v-1c0-8.5-3-10.43-15.41-10.43h-1.27c-14.21 0-17 2.44-17 20.63v3.33c0 17.9 3 20.71 16.92 20.71H236c13.17 0 16-1.85 16-12.86v-5.41h-18.87v-3H256v8c0 13.69-4.23 16.5-19.88 16.5z" transform="translate(-.18 -.39)"/><path class="cls-1" d="M299.87 154.05h-33.86v-50.29h33.69v3.26h-29.61v19.3h28.1v3.18h-28.1v21.3h29.78v3.25zM342.83 154.05h-33.85v-50.29h33.69v3.26h-29.61v19.3h28.1v3.18h-28.1v21.3h29.77v3.25z"/><path class="cls-1" d="M407.86 140.91c0 11.09-3.91 14-18 14h-1.76c-16.36 0-19.4-2.52-19.4-14.2v-1.92h3.91v1.77c0 9 2.08 11 15.41 11h1.52c11.74 0 14.13-1.63 14.13-10.5V140c0-7-1.92-8.66-16-9.62-15.25-1-18.28-4.14-18.28-12.5v-1.18c0-9.76 3.68-12.94 17.24-12.94h1.36c15.49 0 18.61 3 18.61 14.05v1.33h-4.08v-1.18c0-8.88-2-10.87-14.29-10.87h-1.2c-11.33 0-13.56 1.7-13.56 9.61v1.11c0 6.14 1.75 8.13 15.56 9.17 15.65 1.18 18.76 3.7 18.76 12.87zM439.81 151.56c14.53 0 17.24-2.59 17.24-20.56v-3.41c0-18-2.71-20.55-17.24-20.55h-1.44c-14.53 0-17.25 2.59-17.25 20.55V131c0 18 2.72 20.56 17.25 20.56zm-1.44 3.33C421 154.89 417 151.26 417 131v-3.33c0-20.34 4-24 21.4-24h1.44c17.4 0 21.4 3.62 21.4 24V131c0 20.26-4 23.89-21.4 23.89z" transform="translate(-.18 -.39)"/><path class="cls-1" d="M503.04 154.05h-31.62v-50.29h4.07v47.04h27.55v3.25z"/><path class="cls-1" d="M530.05 154.89c-16.36 0-20.11-2.15-20.11-16.42v-34.32h4.15v34c0 12.06 2.79 13.39 15.73 13.39h1.59c12.94 0 16-1.26 16-13.39v-34h4.07v34.32c0 14.2-3.91 16.42-20.28 16.42z" transform="translate(-.18 -.39)"/><path class="cls-1" d="M581.23 154.05h-4.15v-47.03h-18.13v-3.26h40.41v3.26h-18.13v47.03zM607.26 103.76h4.07v50.29h-4.07z"/><path class="cls-1" d="M644.66 151.56c14.53 0 17.24-2.59 17.24-20.56v-3.41c0-18-2.71-20.55-17.24-20.55h-1.43c-14.54 0-17.25 2.59-17.25 20.55V131c0 18 2.71 20.56 17.25 20.56zm-1.43 3.33c-17.42 0-21.41-3.63-21.41-23.89v-3.33c0-20.34 4-24 21.41-24h1.43c17.4 0 21.4 3.62 21.4 24V131c0 20.26-4 23.89-21.4 23.89z" transform="translate(-.18 -.39)"/><path class="cls-1" d="M719.54 154.05h-6.62l-32.34-47.03h-.24v47.03h-3.99v-50.29h6.63l32.33 46.97h.24v-46.97h3.99v50.29z"/><path class="cls-1" d="M769 140.91c0 11.09-3.91 14-18 14h-1.76c-16.37 0-19.4-2.52-19.4-14.2v-1.92h3.91v1.77c0 9 2.08 11 15.41 11h1.51c11.74 0 14.14-1.63 14.14-10.5V140c0-7-1.92-8.66-16-9.62-15.25-1-18.28-4.14-18.28-12.5v-1.18c0-9.76 3.67-12.94 17.24-12.94h1.36c15.49 0 18.6 3 18.6 14.05v1.33h-4.07v-1.18c0-8.88-2-10.87-14.29-10.87h-1.2c-11.33 0-13.57 1.7-13.57 9.61v1.11c0 6.14 1.75 8.13 15.56 9.17 15.65 1.18 18.77 3.7 18.77 12.87z" transform="translate(-.18 -.39)"/><path d="M47.3 41.05A20.33 20.33 0 1027 20.72a20.34 20.34 0 0020.3 20.33" transform="translate(-.18 -.39)" fill="#ef7e31"/><path class="cls-1" d="M238.81 190.22c-.31 0-.41.15-.41.4v17.11c0 3.46 1.07 4.23 3.2 4.23h3.72a.48.48 0 01.51.51v1.37c0 .36-.21.46-.51.56a40.47 40.47 0 01-4.43.2c-4.22 0-5.85-1.83-5.85-6.15v-17.77a.41.41 0 00-.46-.46h-4.33c-.31 0-.46-.15-.46-.41V188a.37.37 0 01.41-.41h4.53c.2 0 .31-.15.36-.4l.5-8.15c0-.41.1-.61.46-.61h1.84c.35 0 .56.2.56.66v8.1c0 .3.1.4.36.4h6.71c.26 0 .4.11.4.41v1.78c0 .26-.09.41-.45.41zM270 199.49c.71 0 .86-.16.86-.72 0-4.89-3.2-9.06-8.55-9.06-6 0-9.21 5-9.16 9.78zm-7.49 12.92a9.33 9.33 0 008.35-4.42c.21-.31.36-.36.66-.21l1.74 1c.2.1.25.36.05.61-2.55 4-6.06 5.75-11 5.75-7.49 0-12.73-5.59-12.73-13.74 0-8.86 5.45-14.26 12.68-14.26s12 5 12 13.7c0 .51.09 1.07-.72 1.07h-20.1c-.26 0-.36.35-.36.76a9.63 9.63 0 009.41 9.77M301.9 193.07c.21.4.16.56-.15.66l-2.13.71c-.22.11-.41.05-.62-.25-2.39-3.05-4.38-4.43-7.18-4.43-5.65 0-9.31 4.43-9.31 11.36s3.71 11.35 9.36 11.35c3.36 0 5.81-1.63 7.89-4.94.2-.26.36-.36.61-.21l1.79.82c.2.1.25.31.15.61a11.94 11.94 0 01-10.74 6.36c-7.38 0-12.53-5.59-12.53-13.89s5.24-14.11 12.53-14.11a11.47 11.47 0 0110.33 6M308.2 214v-36.6c0-.36.15-.56.5-.56h2.19c.36 0 .51.15.51.51v13.75c0 .35.15.45.46.14 3.72-2.74 6.06-4.12 9.57-4.12 5.4 0 8.2 3.06 8.2 7.64V214c0 .45-.21.65-.61.65h-2.14c-.41 0-.61-.15-.61-.61v-18.42c0-3.57-1.68-5.71-5.65-5.71-3.31 0-5.5 1.43-9.07 4.33V214c0 .41-.2.61-.66.61h-2.08a.54.54 0 01-.61-.61M337.76 214v-25.82c0-.35.15-.56.5-.56h2.19c.36 0 .51.15.51.51v3c0 .35.16.46.46.15 3.56-2.65 6-4.18 9.57-4.18 5.35 0 8.2 3.06 8.2 7.59V214c0 .45-.21.65-.61.65h-2.15c-.4 0-.6-.15-.6-.61v-18.42c0-3.57-1.68-5.71-5.65-5.71-3.31 0-5.5 1.43-9.06 4.33V214c0 .41-.21.61-.67.61h-2.08a.54.54 0 01-.61-.61M387.52 201.16c0-6.92-3.51-11.4-9.16-11.4s-9.26 4.53-9.26 11.4 3.56 11.25 9.31 11.25 9.11-4.37 9.11-11.25m-21.89.1c0-8.34 5.2-14.15 12.73-14.15s12.63 5.81 12.63 14-5.09 14-12.68 14-12.68-5.66-12.68-13.86M401.09 213.84c0 .61-.15.77-.75.77h-1.94c-.51 0-.66-.16-.66-.62l.05-36.55c0-.46.1-.61.51-.61h2.29c.35 0 .5.15.5.61zM429.75 201.16c0-6.92-3.52-11.4-9.17-11.4s-9.26 4.53-9.26 11.4 3.56 11.25 9.31 11.25 9.12-4.37 9.12-11.25m-21.9.1c0-8.34 5.2-14.15 12.73-14.15s12.63 5.81 12.63 14-5.09 14-12.68 14-12.68-5.66-12.68-13.86M457.58 195.72c0-3.87-2.49-6.11-7.48-6.11s-7.64 2.29-7.64 6.11 2.75 5.85 7.64 5.85 7.48-2 7.48-5.85m-12.17 15.17c-1.73-.1-5.09 1.93-5.09 4.94 0 3.41 3.52 5.34 10.13 5.34 5.86 0 9-1.73 9-5.44 0-2.55-1.42-4.13-5.35-4.33zm19.09-22.76v1.27c0 .61-.2.92-.91.92a5.82 5.82 0 00-2.71.51c-.91.46-1.16.76-1 1.17a9 9 0 01.92 3.77c0 4.53-3.31 8.2-10.75 8.2-5.45 0-7.08 1.17-7.08 2.29s1.49 1.58 5.05 1.78l6.36.35c5.8.36 8.35 3 8.35 7 0 5.14-4.63 8.15-12.73 8.15-8.3 0-12.78-2.65-12.78-7.34 0-2.39 1.59-4.38 4.69-6 .41-.16.41-.36 0-.57a3 3 0 01-2.14-2.79c0-1.33 1.17-2.7 3.77-3.57.35-.1.35-.41 0-.61-2.85-1.58-4.23-3.71-4.23-6.87 0-5.3 4.07-8.55 11.2-8.55 3.46 0 5.76.81 7.49 2.29a.68.68 0 001 0 7.74 7.74 0 014.59-2.14c.76 0 1 .2 1 .76M468.2 222.39v-1.47c0-.46.25-.61 1.48-.61h3.15c3.06 0 5.3-5.05 4.33-7.54l-9.67-24.39c-.16-.4 0-.76.5-.76h2.29a.67.67 0 01.72.51l8.14 20.93c.26.61.62.61.92-.2l7.94-20.78a.7.7 0 01.67-.46h1.82c.41 0 .62.36.47.61l-11.41 29.38c-1.69 4.28-4.23 5.39-8.15 5.39-2 0-3.2 0-3.2-.61M513.78 190.22c-.3 0-.4.15-.4.4v17.11c0 3.46 1.07 4.23 3.2 4.23h3.72a.48.48 0 01.51.51v1.37c0 .36-.21.46-.51.56a40.47 40.47 0 01-4.43.2c-4.22 0-5.85-1.83-5.85-6.15v-17.77a.41.41 0 00-.46-.46h-4.33c-.3 0-.46-.15-.46-.41V188a.38.38 0 01.41-.41h4.53c.21 0 .31-.15.36-.4l.51-8.15c0-.41.1-.61.46-.61h1.83c.36 0 .56.2.56.66v8.1c0 .3.1.4.35.4h6.73c.25 0 .4.11.4.41v1.78c0 .26-.1.41-.46.41zM546.46 201.16c0-6.92-3.51-11.4-9.16-11.4s-9.28 4.53-9.28 11.4 3.57 11.25 9.32 11.25 9.12-4.37 9.12-11.25m-21.89.1c0-8.34 5.19-14.15 12.73-14.15s12.62 5.81 12.62 14-5.09 14-12.68 14-12.67-5.66-12.67-13.86M573.76 190.22c-.3 0-.4.15-.4.4v17.11c0 3.46 1.07 4.23 3.2 4.23h3.72a.48.48 0 01.51.51v1.37c0 .36-.2.46-.51.56a40.24 40.24 0 01-4.43.2c-4.22 0-5.85-1.83-5.85-6.15v-17.77a.4.4 0 00-.46-.46h-4.33c-.3 0-.46-.15-.46-.41V188a.38.38 0 01.41-.41h4.53c.21 0 .31-.15.36-.4l.51-8.15c0-.41.1-.61.46-.61h1.83c.36 0 .56.2.56.66v8.1c0 .3.1.4.35.4h6.73a.36.36 0 01.41.41v1.78c0 .26-.11.41-.47.41zM586.79 214v-36.6c0-.36.15-.56.51-.56h2.19c.35 0 .5.15.5.51v13.75c0 .35.16.45.46.14 3.72-2.74 6.06-4.12 9.58-4.12 5.39 0 8.19 3.06 8.19 7.64V214c0 .45-.2.65-.61.65h-2.14c-.41 0-.6-.15-.6-.61v-18.42c0-3.57-1.69-5.71-5.66-5.71-3.31 0-5.5 1.43-9.06 4.33V214c0 .41-.21.61-.66.61h-2.09a.54.54 0 01-.61-.61M616.35 214v-25.82c0-.35.15-.56.5-.56H619c.31 0 .46.15.46.51v3.36c0 .36.21.46.51.15 2.8-3.15 5.3-4.53 7.94-4.53 1.28 0 1.84.16 1.84.62v2.34c0 .25-.16.35-.41.35a15.28 15.28 0 00-2-.15c-3.1 0-7.68 3.21-7.68 6.31V214c0 .41-.21.61-.67.61H617c-.46 0-.61-.2-.61-.61M638.63 213.84c0 .61-.15.77-.81.77h-1.88c-.52 0-.66-.16-.66-.62v-25.76c0-.46.14-.61.55-.61h2.25c.4 0 .55.15.55.61zm.21-32.38c0 .61-.16.92-.76.92h-2.35c-.56 0-.66-.31-.66-.82v-4c0-.51.26-.76.66-.76h2.45a.62.62 0 01.66.71zM668.82 188.23l-10.44 25.71a1 1 0 01-1.07.67h-1.37a1.22 1.22 0 01-1.17-.61l-10.39-25.71a.5.5 0 01.51-.67h2.35a.62.62 0 01.7.51l8.56 21.28c.25.66.51.66.81 0l8.51-21.28a.61.61 0 01.66-.46h1.88a.44.44 0 01.46.61M691.81 199.49c.71 0 .86-.16.86-.72 0-4.89-3.21-9.06-8.55-9.06-6 0-9.21 5-9.16 9.78zm-7.49 12.92a9.33 9.33 0 008.35-4.42c.21-.31.36-.36.66-.21l1.74 1c.2.1.25.36 0 .61-2.55 4-6.06 5.75-11 5.75-7.49 0-12.73-5.59-12.73-13.74 0-8.86 5.45-14.26 12.68-14.26s12 5 12 13.7c0 .51.09 1.07-.72 1.07h-20.1c-.27 0-.36.35-.36.76a9.63 9.63 0 009.41 9.77M733.78 201.16c0-6.92-3.51-11.4-9.16-11.4s-9.27 4.53-9.27 11.4 3.57 11.25 9.32 11.25 9.11-4.37 9.11-11.25m-21.89.1c0-8.34 5.19-14.15 12.73-14.15s12.63 5.81 12.63 14-5.1 14-12.68 14-12.68-5.66-12.68-13.86M744 214v-25.82c0-.35.14-.56.5-.56h2.19c.36 0 .52.15.52.51v3c0 .35.14.46.45.15 3.56-2.65 6-4.18 9.57-4.18 5.35 0 8.2 3.06 8.2 7.59V214c0 .45-.21.65-.61.65h-2.14c-.41 0-.62-.15-.62-.61v-18.42c0-3.57-1.67-5.71-5.64-5.71-3.31 0-5.5 1.43-9.07 4.33V214c0 .41-.2.61-.66.61h-2.08a.54.54 0 01-.61-.61" transform="translate(-.18 -.39)"/><path fill="none" d="M30.8 114.05h30.73L46.12 71.66 30.8 114.05z"/><path d="M76.32 154.58H93.5L56 55.77H38.69L.18 154.58h16.29l9.69-26.82h40.4zM31 114.43l15.3-42.38 15.41 42.38z" transform="translate(-.18 -.39)" fill="#11448d"/></svg>