<svg version="1.1" id="Layer_1" xmlns="http://www.w3.org/2000/svg" x="0" y="0" viewBox="0 0 142 63" xml:space="preserve"><style>.st0{fill:#fff}</style><circle class="st0" cx="29.6" cy="11.8" r="4.6"/><path class="st0" d="M50.3.3l-2 3.3c-.6 1-1.3 2-1.9 2.9-.3-.3-.7-.5-1.4-1-1.5-1-3.2-1.9-4.9-2.7-1.7-.7-3.6-1.3-5.4-1.7-3.8-.8-7.8-.8-11.6 0-1.9.4-3.7.9-5.4 1.7-1.7.7-3.4 1.6-4.9 2.7-1.5 1-3 2.2-4.3 3.5C7.2 10.3 6 11.7 5 13.3c-1 1.5-1.9 3.2-2.7 4.9C1.5 20 1 21.8.6 23.6c-.4 1.9-.6 3.9-.6 5.9 0 2 .2 3.9.6 5.8.4 1.8.9 3.7 1.7 5.4.7 1.7 1.6 3.4 2.7 4.9 1 1.5 2.2 3 3.5 4.3 1.3 1.3 2.7 2.5 4.3 3.5 1.8 1.2 2.5 1.6 4.1 2.5 0 0 .1.1.2.1-.6 1.2-1.2 2.3-1.8 3.4l-1.4 2.5 1.4.8L49.8 4.5c.3-.4.5-.8.8-1.3l1.2-2.1-1.5-.8zM9.8 10.4c1.2-1.2 2.6-2.3 4-3.3s3-1.8 4.6-2.5c1.6-.6 3.3-1.1 5-1.5 3.5-.7 7.3-.7 10.8 0 1.8.4 3.5.9 5.1 1.6 1.6.7 3.1 1.5 4.6 2.5.8.5 1.1.7 1.4 1-4.5 5.7-9.8 9.6-15.1 11.1-8.3 2.2-17.3-1.3-23.6-4.8.9-1.5 2-2.9 3.2-4.1zm8 43.8c-1.5-.9-2.2-1.2-4-2.4-1.4-1-2.8-2.1-4-3.3-1.2-1.2-2.3-2.6-3.3-4s-1.8-3-2.5-4.6c-.7-1.6-1.2-3.3-1.6-5.1-.3-1.7-.4-3.5-.4-5.3 0-1.8.2-3.7.5-5.4.4-1.7.9-3.4 1.6-5.1.5-1.1 1-2.1 1.6-3.1 7.5 4.5 12.9 11.4 15 19 1.7 6.4-.2 13.5-2.9 19.3z"/><g><path class="st0" d="M54 33.8h-6.4V20.9H54v1h-5.3v4.3H54v1.1h-5.3v5.5H54v1zM57.4 33.8h-1v-6.6h-1v-1h1V23h1v3.2h1.7v1h-1.7v6.6zM66.3 33.8h-1v-4.5c0-1.4-.6-2.1-2-2.1-.5 0-1 .2-1.4.5-.4.3-.6.7-.6 1.3v4.9h-1V20.4h1v6.4c.5-.5 1.1-.8 2-.8 2 0 3 1 3 3.1v4.7zM69 33.8h-1v-7.6h1v7.6zm-.5-8.6c-.2 0-.3-.1-.5-.2s-.2-.3-.2-.5c0-.3.1-.6.7-.8.3 0 .6.1.8.7 0 .6-.3.8-.8.8zM74.4 33.9c-1.1 0-2.1-.4-2.8-1.1-.7-.7-1.1-1.7-1.1-2.8 0-1.1.4-2.1 1.1-2.8.7-.7 1.7-1.1 2.8-1.1 1 0 1.7.2 2.3.7h.1V28l-.7-.5-.5-.3c-.4-.1-.8-.2-1.2-.2-.9 0-1.6.3-2.1.8s-.8 1.2-.8 2.1c0 .8.3 1.5.8 2.1.5.5 1.2.8 2.1.8.8 0 1.5-.3 2.1-.8l.3-.2v1.3h-.1c-.6.6-1.4.8-2.3.8zM88.2 33.8h-1V20.4h1v13.4zM97.8 33.9c-2 0-3.3-1-3.9-2.8v-.2l1-.4v.2c.4 1.4 1.3 2.1 2.8 2.1.9 0 1.5-.2 2-.6.5-.4.7-1.1.7-1.9 0-.8-.3-1.4-.9-2-.2-.1-.4-.3-.7-.5-.3-.2-.8-.4-1.3-.6-1-.5-1.7-.8-2.1-1.2-.6-.6-1-1.3-1-2.2 0-.9.3-1.7 1-2.2.6-.6 1.4-.8 2.4-.8 1.5 0 2.6.6 3.3 1.7l.1.2-1 .4-.1-.1c-.2-.4-.5-.6-.8-.8-.4-.2-.9-.4-1.5-.4s-1.2.2-1.6.5c-.5.4-.7.9-.7 1.5s.2 1 .7 1.4c.3.2.9.5 1.7.9.6.2 1 .5 1.4.7.4.2.7.5 1 .8.7.7 1.1 1.6 1.1 2.6 0 1.7-.7 2.8-2.1 3.3-.3.4-.9.4-1.5.4zM115 33.9c-1.1 0-2.1-.4-2.8-1.1-.7-.7-1.1-1.7-1.1-2.8 0-1.1.4-2.1 1.1-2.8.7-.7 1.7-1.1 2.8-1.1 1 0 1.7.2 2.3.7h.1V28l-.7-.5-.5-.3c-.4-.1-.8-.2-1.2-.2-.9 0-1.6.3-2.1.8s-.8 1.2-.8 2.1c0 .8.3 1.5.8 2.1.5.5 1.2.8 2.1.8.8 0 1.5-.3 2.1-.8l.3-.2v1.3h-.1c-.7.6-1.5.8-2.3.8zM120 33.8h-1v-7.6h1v7.6zm-.5-8.6c-.2 0-.3-.1-.5-.2s-.2-.3-.2-.5c0-.3.1-.6.7-.8.3 0 .6.1.8.7-.1.6-.3.8-.8.8zM131.9 33.8h-1v-6.6h-1v-1h1V23h1v3.2h1.7v1h-1.7v6.6zM136.9 37.2h-1.2l2-4.2-3.1-6.8h1.1l2.6 5.5 2.6-5.5h1.2l-5.2 11zM48.5 46.3h-.9v-5.1h-.8v-.9h.8v-3.1c0-1 .5-1.5 1.5-1.5h.4c.1 0 .3 0 .4.1h.1v.9l-.6-.1H49c-.3 0-.6.1-.6.7v2.9h1.3v.9h-1.3v5.2zM56.6 46.5c-1.6 0-2.6-.8-3-2.2v-.2l.9-.3v.2c.3 1.1 1 1.6 2.2 1.6.7 0 1.2-.2 1.6-.5.4-.3.6-.8.6-1.4 0-.6-.2-1.1-.7-1.5-.1-.1-.3-.2-.6-.4-.3-.1-.6-.3-1-.5-.8-.4-1.3-.7-1.6-.9-.5-.4-.8-1-.8-1.8 0-.7.3-1.3.8-1.8.5-.4 1.1-.7 1.9-.7 1.2 0 2.1.5 2.6 1.4l.1.2-.8.4-.3-.1c-.2-.3-.4-.5-.6-.6-.3-.2-.7-.3-1.2-.3s-.9.1-1.2.4c-.3.3-.5.7-.5 1.1 0 .4.2.8.5 1.1.2.2.7.4 1.3.7.4.2.8.4 1.1.6.3.2.6.4.8.6.6.5.8 1.2.8 2.1 0 1.3-.6 2.2-1.7 2.6-.2.1-.7.2-1.2.2zM68.6 46.3h-.9v-6h.9v6zm-.4-6.6c-.1 0-.3-.1-.4-.2-.1-.1-.2-.3-.2-.4 0-.2.1-.5.6-.6.2 0 .5.1.6.6 0 .4-.2.6-.6.6zM74.6 46.3h-.9v-3.5c0-1.1-.5-1.6-1.5-1.6-.5 0-.8.1-1.1.4-.3.3-.4.7-.4 1.2v3.6H70v-6h.9v.4c.3-.3.8-.4 1.5-.4s1.3.2 1.7.7c.4.4.6 1 .6 1.8v3.4zM77.1 46.3h-.9v-5.1h-.8v-.9h.8v-2.5h.9v2.5h1.3v.9h-1.3v5.1zM86.2 46.3h-3.6V36.2h.9v9.2h2.8v.9zM95.9 46.5c-.7 0-1.3-.2-1.7-.6-.4-.4-.6-1-.6-1.8v-3.7h.9v3.7c0 .5.1.9.3 1.1.2.3.6.4 1.1.4 1 0 1.4-.5 1.4-1.5v-3.7h.9v3.7c0 .7-.2 1.3-.6 1.7-.4.4-1 .7-1.7.7zM100.4 46.3h-.9v-6h.9v6zm-.5-6.6c-.1 0-.3-.1-.4-.2-.1-.1-.2-.3-.2-.4 0-.2.1-.5.6-.6.2 0 .5.1.6.6.1.4-.2.6-.6.6zM103.3 46.5c-.9 0-1.6-.4-2.1-1.3l-.1-.1.8-.5.1.1c.1.3.3.5.5.6.2.2.5.2.8.2 1 0 1.1-.5 1.1-.9 0-.3-.1-.5-.4-.7-.1 0-.2-.1-.4-.2s-.4-.1-.6-.2c-.5-.2-.8-.3-1-.5-.3-.3-.5-.7-.5-1.2 0-.4.2-.8.5-1.1.3-.3.7-.5 1.2-.5.7 0 1.3.2 1.7.7l.1.1-.7.6-.1-.1c-.3-.3-.6-.4-1.1-.4-.7 0-.8.4-.8.7 0 .2.1.4.2.5.1.1.4.2.7.3.3.1.6.2.8.3.2.1.4.2.5.3.4.3.7.8.7 1.4 0 .5-.2 1-.6 1.3-.2.4-.7.6-1.3.6zM84.4 26.2v1c-.8-.7-1.7-1.1-2.7-1.1-1.1 0-2 .4-2.8 1.1-.7.7-1.1 1.7-1.1 2.8 0 1.1.4 2 1.1 2.8.7.7 1.7 1.1 2.8 1.1 1.1 0 2-.4 2.7-1.1v1h1v-7.6h-1zm-.7 5.9c-.6.6-1.2.8-2 .8s-1.5-.3-2-.9c-.6-.6-.9-1.2-.9-2s.3-1.5.9-2.1c.6-.6 1.2-.8 2-.8s1.5.3 2 .9c.6.6.9 1.2.9 2s-.3 1.5-.9 2.1zM109 27.2c-.8-.8-1.7-1.1-2.8-1.1-1.1 0-2 .4-2.8 1.2-.8.8-1.1 1.7-1.1 2.8 0 1.1.4 2 1.1 2.8.7.7 1.7 1.1 2.8 1.1 1.1 0 2-.4 2.8-1.1.7-.7 1.1-1.7 1.1-2.8.1-1.2-.3-2.1-1.1-2.9zm-.7 4.9c-.6.6-1.2.8-2 .8s-1.5-.3-2-.9c-.6-.6-.9-1.2-.9-2s.3-1.5.9-2c.6-.6 1.2-.9 2-.9s1.5.3 2.1.8c.6.6.8 1.2.8 2.1-.1.8-.4 1.5-.9 2.1zM129.1 29.9c0-1.1-.4-2-1.1-2.7-.7-.7-1.7-1-2.8-1-1.1 0-2.1.4-2.8 1.1-.7.7-1.1 1.7-1.1 2.8 0 1.1.4 2.1 1.1 2.8.7.7 1.7 1.1 2.8 1.1.5 0 .9-.1 1.3-.2 1-.3 1.7-.9 2.2-1.8l.1-.2-.9-.4-.1.1c-.4.6-.8 1-1.3 1.2-.4.2-.8.2-1.3.2-.9 0-1.6-.3-2.2-.8-.5-.5-.7-1.2-.7-2.1h6.8v-.1zm-6.7-.9c.5-1.3 1.4-1.9 2.7-1.9.7 0 1.3.2 1.8.6.5.3.8.8.9 1.3h-5.4zM45.3 41.2c-.6-.6-1.3-.9-2.2-.9-.9 0-1.6.3-2.2.9-.6.6-.9 1.3-.9 2.2 0 .9.3 1.6.9 2.2.6.6 1.3.9 2.2.9.9 0 1.6-.3 2.2-.9.6-.6.9-1.3.9-2.2 0-.9-.3-1.6-.9-2.2zm-.6 3.7c-.4.4-.9.6-1.6.6-.6 0-1.1-.2-1.6-.7-.3-.3-.5-.8-.5-1.4 0-.6.2-1.1.7-1.6.4-.4.9-.7 1.5-.7s1.1.2 1.6.6c.4.4.6.9.6 1.6 0 .7-.2 1.2-.7 1.6zM65.6 40.4v.7c-.6-.5-1.3-.8-2.1-.8-.9 0-1.6.3-2.2.9-.6.6-.9 1.3-.9 2.2 0 .9.3 1.6.9 2.2.6.6 1.3.9 2.2.9.8 0 1.5-.3 2.1-.8v.7h.9v-6h-.9zm-.5 4.5c-.4.4-.9.6-1.6.6-.6 0-1.1-.2-1.6-.7-.4-.4-.7-.9-.7-1.6 0-.6.2-1.1.7-1.6.4-.4.9-.6 1.6-.6.6 0 1.1.2 1.6.7.4.4.7.9.7 1.6-.1.7-.3 1.2-.7 1.6zM91.9 41.2c-.6-.6-1.3-.9-2.2-.9-.9 0-1.6.3-2.2.9-.6.6-.9 1.3-.9 2.2 0 .9.3 1.6.9 2.2.6.6 1.3.9 2.2.9.9 0 1.6-.3 2.2-.9.6-.6.9-1.3.9-2.2 0-.9-.3-1.6-.9-2.2zm-.6 3.7c-.4.4-.9.6-1.6.6-.6 0-1.1-.2-1.6-.7-.4-.4-.7-.9-.7-1.6 0-.6.2-1.1.7-1.6.4-.4.9-.7 1.5-.7s1.1.2 1.6.6c.4.4.6.9.6 1.6.2.9 0 1.4-.5 1.8z"/></g></svg>