<?xml version="1.0" encoding="UTF-8" standalone="no"?>
<!-- Created with Inkscape (http://www.inkscape.org/) -->

<svg
   xmlns:dc="http://purl.org/dc/elements/1.1/"
   xmlns:cc="http://creativecommons.org/ns#"
   xmlns:rdf="http://www.w3.org/1999/02/22-rdf-syntax-ns#"
   xmlns:svg="http://www.w3.org/2000/svg"
   xmlns="http://www.w3.org/2000/svg"
   xmlns:sodipodi="http://sodipodi.sourceforge.net/DTD/sodipodi-0.dtd"
   xmlns:inkscape="http://www.inkscape.org/namespaces/inkscape"
   version="1.1"
   id="svg21"
   width="459.14755"
   height="459.14755"
   viewBox="0 0 459.14755 459.14755"
   sodipodi:docname="new ltt logo.svg"
   inkscape:version="0.92.4 (5da689c313, 2019-01-14)">
  <metadata
     id="metadata27">
    <rdf:RDF>
      <cc:Work
         rdf:about="">
        <dc:format>image/svg+xml</dc:format>
        <dc:type
           rdf:resource="http://purl.org/dc/dcmitype/StillImage" />
        <dc:title></dc:title>
      </cc:Work>
    </rdf:RDF>
  </metadata>
  <defs
     id="defs25" />
  <sodipodi:namedview
     pagecolor="#ffffff"
     bordercolor="#666666"
     borderopacity="1"
     objecttolerance="10"
     gridtolerance="10"
     guidetolerance="10"
     inkscape:pageopacity="0"
     inkscape:pageshadow="2"
     inkscape:window-width="1920"
     inkscape:window-height="1017"
     id="namedview23"
     showgrid="false"
     inkscape:zoom="1.4142136"
     inkscape:cx="185.25243"
     inkscape:cy="295.37494"
     inkscape:window-x="-8"
     inkscape:window-y="176"
     inkscape:window-maximized="1"
     inkscape:current-layer="svg21" />
  <path
     style="fill:#f15a29;fill-opacity:1;stroke-width:0.13114755"
     d="m 219.71669,458.9577 c -27.9766,-1.225 -55.6178,-7.47146 -80.48466,-18.18821 -1.1682,-0.50346 -2.15994,-0.87944 -2.20384,-0.83552 -0.0439,0.0439 -0.12092,0.0145 -0.1711,-0.0655 -0.0502,-0.0799 -1.41909,-0.75411 -3.04205,-1.49818 -19.62277,-8.9963 -38.56549,-21.26898 -55.014916,-35.64328 -5.30331,-4.63429 -12.6672,-11.74745 -17.05687,-16.47609 -1.00441,-1.08197 -1.90079,-1.95902 -1.99196,-1.949 -0.0912,0.01 -0.16576,-0.0675 -0.16576,-0.17235 0,-0.10481 -1.01851,-1.35236 -2.26336,-2.77232 -3.17741,-3.62435 -4.72052,-5.4581 -7.19402,-8.54894 C 22.265714,337.99185 5.396854,296.40884 1.1022743,251.95584 -0.05127568,240.01552 -0.26465568,226.67906 0.50738432,214.77552 3.268154,172.20923 17.226274,132.38198 41.483234,97.85749 51.673554,83.35379 63.831204,69.75296 77.356464,57.72593 100.19052,37.42125 126.78416,21.91628 155.50071,12.16525 c 41.74167,-14.1738565 87.6503,-15.9914745 130.64221,-5.1724 11.53939,2.90394 22.98165,6.76021 33.75663,11.37669 1.1104,0.47574 2.12351,0.86499 2.25135,0.86499 0.12786,0 0.25212,0.0549 0.27617,0.12198 0.024,0.0671 1.04699,0.5727 2.27322,1.12358 7.68602,3.45293 18.00692,8.98396 25.7705,13.81055 16.94283,10.53331 33.36262,24.01737 46.74397,38.38652 1.14193,1.22623 2.15727,2.21216 2.2563,2.19097 0.0999,-0.0214 0.18037,0.0662 0.18076,0.19672 0,0.12939 0.45119,0.7369 1.0018,1.35001 21.18536,23.59079 37.41716,51.65055 47.18456,81.56754 10.5034,32.17127 13.7728,66.77464 9.5109,100.66197 -6.3737,50.67868 -29.1505,97.05687 -65.50265,133.37705 -19.34533,19.3283 -42.17069,35.24011 -66.56823,46.40543 -27.06634,12.38666 -55.62301,19.18576 -86.28283,20.5432 -3.41697,0.15128 -15.72166,0.1434 -19.27868,-0.0123 z m 22.2295,-13.42 c 28.21472,-1.76521 53.33181,-8.07402 78.91438,-19.82139 l 1.40616,-0.64571 0.004,-96.88525 c 0.002,-53.28688 -0.0205,-96.88524 -0.0501,-96.88524 -0.0495,0 -45.83967,15.30152 -46.20882,15.44144 -0.13128,0.0498 -0.15756,-6.49346 -0.13115,-32.63708 l 0.0331,-32.69929 73.34299,-24.5376 c 40.33864,-13.49568 73.37933,-24.57393 73.42373,-24.61832 0.2465,-0.24652 -5.8488,-11.1685 -9.4955,-17.01473 -7.60807,-12.19619 -17.51771,-25.00233 -26.60003,-34.37444 l -1.09364,-1.12854 -62.39551,20.87716 -62.39551,20.87716 -0.0329,89.66121 c -0.0181,49.31368 -0.0539,89.66122 -0.0795,89.66122 -0.0256,0 -13.98295,4.6602 -31.0163,10.35601 l -30.96972,10.356 v -89.63013 -89.63014 l -23.10113,7.73315 c -12.70562,4.25322 -23.12214,7.73314 -23.1478,7.73314 -0.0257,0 -0.0318,-14.70498 -0.0136,-32.67775 l 0.0331,-32.67774 84.91804,-28.41503 84.91803,-28.41503 0.0386,-0.71862 0.0386,-0.71861 -2.98941,-1.3567 C 295.37071,21.88861 270.4954,15.59794 244.37245,13.79948 c -9.89139,-0.68098 -22.58371,-0.60527 -32.19672,0.19204 -25.77689,2.13799 -49.98886,8.48515 -73.27869,19.21 l -1.93442,0.89079 v 162.07931 c 0,89.14362 0.0161,162.07931 0.0358,162.07931 0.0469,0 149.51393,-50.00786 160.92682,-53.842 4.82126,-1.61968 8.81962,-2.94489 8.88525,-2.94489 0.0714,0 0.11933,13.12252 0.11933,32.63978 v 32.63978 l -7.77049,2.61714 c -4.27377,1.43944 -42.51586,14.23843 -84.98241,28.44219 l -77.21191,25.82505 -0.001,0.73207 -0.001,0.73205 2.98361,1.35419 c 25.72713,11.67699 52.05078,17.94117 81.01639,19.27928 3.69442,0.17067 17.18314,0.0499 20.98361,-0.18787 z m 146.48629,-69.18841 c 4.68534,-5.03308 9.95646,-11.35906 14.32121,-17.18719 25.04269,-33.43873 39.68379,-72.788 42.59759,-114.48494 1.1379,-16.28356 0.4156,-33.07666 -2.1038,-48.90778 -0.7029,-4.41684 -0.7565,-4.67081 -0.978,-4.63461 -0.1057,0.0173 -13.2053,4.38778 -29.1102,9.71226 l -28.918,9.68087 -0.0329,85.15296 -0.0329,85.15294 1.54858,-1.6193 c 0.85171,-0.89061 2.07049,-2.17996 2.70839,-2.86521 z M 74.929804,228.76041 V 78.4675 l -0.34171,0.31794 c -0.60523,0.56314 -4.94696,5.23927 -6.80985,7.33434 -20.11176,22.61834 -35.52742,49.78616 -44.50088,78.42623 -8.01323,25.57534 -11.22118,52.1484 -9.52317,78.88524 3.17987,50.07063 23.50828,97.05875 57.93557,133.9153 l 1.97281,2.11201 0.63361,-0.20262 0.63362,-0.20261 z"
     id="path3734"
     inkscape:connector-curvature="0" />
</svg>
