<svg data-name="Layer 1" xmlns="http://www.w3.org/2000/svg" viewBox="0 0 535.69 108.17"><path d="M29.25 32.78c-8-8.62-9-18.81-3-30.28H11.08A31.37 31.37 0 006.81 17c-.38 9.58 3.73 19 11.88 27.35C21.94 47.7 60.12 89 65 94.22v-23z" fill="#00bd80"/><path d="M23.31 68.82l34.3-32.24L47 25.1 13.57 56.51C4.85 64.72.15 74.16 0 83.82a30.74 30.74 0 002.64 12.86h14.71c-4.09-10.93-2.09-20.29 6-27.86" fill="#00c2e5"/><path d="M116.63 44H89.08V2.42h8.44v34.19h19.11zm27.86-9.67h-12.88L128.36 44h-9.89l16.68-41.6H141L157.65 44h-9.92zm-2.29-6.73L138 15l-4.1 12.6zM160.26 44V2.42h15A13.68 13.68 0 01184.73 6a11.29 11.29 0 013.93 8.73 7.74 7.74 0 01-3.77 7 11 11 0 015 4 10.12 10.12 0 012.1 6.05 11.33 11.33 0 01-3.9 8.73 13.49 13.49 0 01-9.4 3.54h-18.4zm18.4-25.65a4.51 4.51 0 001.41-3.29 5.33 5.33 0 00-1.41-3.68 4.42 4.42 0 00-3.42-1.57h-6.46v10h6.46a4.66 4.66 0 003.42-1.43zm3.49 16.67a5.55 5.55 0 001.33-3.68 4.59 4.59 0 00-1.37-3.29 4.36 4.36 0 00-3.24-1.41h-10.09v9.95h10.14a4.12 4.12 0 003.23-1.54zm30.23 5.67A12 12 0 01208 31.6V2.4h8.52v27.75a6.05 6.05 0 002.23 4.92 8.65 8.65 0 005.7 1.84 9.62 9.62 0 005.45-1.68 5.69 5.69 0 002.52-5.08V2.4H241v29.2a11.57 11.57 0 01-4.6 9.3q-4.6 3.76-11.86 3.76-7.82 0-12.16-3.94zM275.43 44h-8.33V26a5.54 5.54 0 00-1.79-4.28 6.33 6.33 0 00-4.31-1.5 8.65 8.65 0 00-5 1.4Q254 23 254 27v17h-8.3V13.49h7.8v4.9a14.87 14.87 0 014.26-4.06 10.35 10.35 0 015.57-1.5 11.4 11.4 0 018.67 3.54q3.3 3.54 3.38 9.58V44zm4.66-35.06a5 5 0 01-1.51-3.69 5.11 5.11 0 011.51-3.71 5 5 0 017.25 0 5.13 5.13 0 011.5 3.71 5 5 0 01-1.5 3.69 5.06 5.06 0 01-7.25 0zM279.56 44V13.49h8.3V44zm23.63 0l-12.63-30.51h9.72l7 22.53 7-22.53H324L311.37 44zm36.89.6a16.21 16.21 0 01-11.58-4.55 15.29 15.29 0 01-4.85-11.45 15.52 15.52 0 014.53-11.29 14.82 14.82 0 0110.87-4.48 13.9 13.9 0 0110.84 4.6A16.25 16.25 0 01354 28.74a14 14 0 01-.31 2.85h-21.61a6.35 6.35 0 002.56 4 8.33 8.33 0 005.43 1.83 9 9 0 006.62-2.57l4.86 5.59a17.82 17.82 0 01-11.47 4.19zm5.79-19.08a6.64 6.64 0 00-2-4.28 6.41 6.41 0 00-4.86-1.85 6.82 6.82 0 00-7 6.13zm19 18.42h-8.33V13.43h7.82v4.45q2.52-5.1 6.9-5.1a7 7 0 014.89 1.48l-3.35 6.56a5.06 5.06 0 00-2.43-.63 5.14 5.14 0 00-3.87 1.74 6.07 6.07 0 00-1.63 4.33V44zm23 .66a26 26 0 01-8.21-1.1 15.09 15.09 0 01-5.25-2.89l3.07-5.93a19.62 19.62 0 004.57 2.47 14.63 14.63 0 005.24.93 5.61 5.61 0 003.28-.76 2.38 2.38 0 001.08-2 1.82 1.82 0 00-.56-1.38 4 4 0 00-1.51-.84l-8.27-2.91a8.4 8.4 0 01-4.18-2.79 7.44 7.44 0 01-1.38-4.56 8.82 8.82 0 013.79-7.17 14.77 14.77 0 019.29-2.89q7.13 0 11.54 3.45l-3.44 5.85a12.79 12.79 0 00-7.77-2.62 4.93 4.93 0 00-3.25.84 2.6 2.6 0 00-1 1.92 2.23 2.23 0 00.54 1.47 4 4 0 001.75 1.07l7.15 2.51a10.36 10.36 0 014.83 3.12 7.59 7.59 0 011.62 4.92 7.53 7.53 0 01-4 6.94 17.8 17.8 0 01-8.93 2.38zM405 8.94a5 5 0 01-1.51-3.69A5.11 5.11 0 01405 1.54a5 5 0 017.25 0 5.12 5.12 0 011.49 3.71 5.08 5.08 0 01-1.49 3.69 5.06 5.06 0 01-7.25 0zM404.42 44V13.49h8.3V44zm29 .63a13.21 13.21 0 01-8.69-2.75c-2.22-1.83-3.33-4.61-3.33-8.31V20.05h-5.59v-6.73h5.59V7.24l8.3-3v9.1h8.44v6.73h-8.44v13.5a3.93 3.93 0 001.41 3.25 5.8 5.8 0 003.73 1.18 13.62 13.62 0 003.27-.43v6.63a22.48 22.48 0 01-4.72.43zm8.36 11.09v-6.64a21.69 21.69 0 004.55.4 3.65 3.65 0 002.22-.66 4.42 4.42 0 001.45-1.88l1.79-4.31-12.17-29.14h9.81l6.06 19.25 6.23-19.25H471l-13.53 34.85a12.69 12.69 0 01-4.25 5.82 11.44 11.44 0 01-6.93 2 24.53 24.53 0 01-4.54-.44zM498 44.63A15.44 15.44 0 01486.69 40 15.25 15.25 0 01482 28.74a15.94 15.94 0 0116-15.91 15.38 15.38 0 0111.29 4.66A15.34 15.34 0 01514 28.74a15.91 15.91 0 01-16 15.89zm0-7.39a7 7 0 005.41-2.5 8.64 8.64 0 002.25-6 8.68 8.68 0 00-2.25-6 7.11 7.11 0 00-10.83 0 8.72 8.72 0 00-2.23 6 8.67 8.67 0 002.23 6 7 7 0 005.42 2.5zM518.92 44V20.22h-5.59v-6.73h5.59q0-6.64 3.34-9.18A14 14 0 01531 1.77a29.08 29.08 0 014.72.43v7a11.61 11.61 0 00-3.27-.43 6.59 6.59 0 00-4 .93 3.27 3.27 0 00-1.17 2.72v1.08h8.44v6.73h-8.44V44zM111.8 87H98.92l-3.24 9.64h-9.89L102.47 55h5.81L125 96.64h-10zm-2.29-6.76l-4.16-12.6-4.13 12.6zm17.84 27.92v-42h7.8v5q4.44-5.64 9.75-5.65a13.73 13.73 0 0110.49 4.65 16.86 16.86 0 010 22.47 13.73 13.73 0 01-10.49 4.65q-5 0-9.25-5.13v16h-8.3zM149 87.41a8.83 8.83 0 000-12.06 7.85 7.85 0 00-11.49 0 8.83 8.83 0 000 12.06 7.85 7.85 0 0011.49 0zm13.52 20.75v-42h7.8v5q4.44-5.64 9.75-5.65a13.72 13.72 0 0110.49 4.65 16.86 16.86 0 010 22.47 13.73 13.73 0 01-10.49 4.65q-5 0-9.25-5.13v16h-8.3zm21.66-20.75a8.83 8.83 0 000-12.06 7.68 7.68 0 00-5.76-2.5 7.6 7.6 0 00-5.73 2.5 8.83 8.83 0 000 12.06 7.85 7.85 0 0011.49 0zM198 96.64V55.06h8.33v41.58zm13.89-35.06a5 5 0 01-1.51-3.69 5.11 5.11 0 011.51-3.71 5 5 0 017.25 0 5.13 5.13 0 011.5 3.71 5 5 0 01-1.5 3.69 5.06 5.06 0 01-7.25 0zm-.53 35.06V66.13h8.3v30.51zm28.16.63a16.21 16.21 0 01-11.58-4.55 16.13 16.13 0 01-.33-22.72 14.8 14.8 0 0110.87-4.48 13.91 13.91 0 0110.84 4.6 16.26 16.26 0 014.14 11.28 14 14 0 01-.31 2.85h-21.63a6.35 6.35 0 002.56 4 8.39 8.39 0 005.44 1.75 9 9 0 006.62-2.57L251 93a18 18 0 01-11.49 4.27zm5.78-19.08a6.69 6.69 0 00-2-4.28 6.41 6.41 0 00-4.86-1.85 6.82 6.82 0 00-7 6.13zm15.35 14.43a16.85 16.85 0 010-22.49 13.75 13.75 0 0110.51-4.66q5 0 9.22 5.3V55h8.3v41.62h-7.8v-5c-3 3.78-6.21 5.67-9.72 5.67a13.77 13.77 0 01-10.52-4.67zm17.86-5.23a8.79 8.79 0 000-12 7.85 7.85 0 00-11.49 0 8.79 8.79 0 000 12 7.85 7.85 0 0011.49 0zm41.88 9.88a23.16 23.16 0 01-9.67-2.15 16.35 16.35 0 01-7.21-6l5.62-5.33a12.26 12.26 0 005 4.19 14.24 14.24 0 006.27 1.57 9 9 0 005-1.31 4 4 0 002-3.45 3.37 3.37 0 00-1.17-2.5 9.56 9.56 0 00-3.69-1.87l-9.61-3A13.25 13.25 0 01307 73.8a9.61 9.61 0 01-2.24-6.73 11.17 11.17 0 014.58-8.93 17 17 0 0111-3.71A22.12 22.12 0 01329 56a16.44 16.44 0 016.52 5l-6.12 5.19a9.13 9.13 0 00-3.62-3 12.18 12.18 0 00-5.18-1 7.43 7.43 0 00-4.37 1.33 4 4 0 00-1.88 3.48 3.55 3.55 0 00.67 2.28 4 4 0 002.12 1.34L328 74.05a14.06 14.06 0 016.54 3.88 9.93 9.93 0 012.38 6.7q0 5.22-4.75 8.93a18.7 18.7 0 01-11.79 3.71zm35 0A17.08 17.08 0 01343.64 93q-4.81-4.27-4.82-11.61t4.86-11.59a16.9 16.9 0 0111.71-4.29 15.83 15.83 0 0110.87 4.16l-4.86 5.73a7.12 7.12 0 00-5.76-2.54 8.52 8.52 0 100 17 7.14 7.14 0 005.76-2.54l4.86 5.73a15.72 15.72 0 01-10.87 4.22zm14.29-35.69a5 5 0 01-1.51-3.69 5.11 5.11 0 011.51-3.71 5 5 0 017.25 0 5.13 5.13 0 011.5 3.71 5 5 0 01-1.5 3.69 5.06 5.06 0 01-7.25 0zm-.53 35.06V66.13h8.3v30.51zm27.68.63a16.21 16.21 0 01-11.58-4.55 15.33 15.33 0 01-4.85-11.45A15.52 15.52 0 01384.93 70a14.82 14.82 0 0110.87-4.5 13.9 13.9 0 0110.84 4.6 16.25 16.25 0 014.13 11.28 14 14 0 01-.31 2.85h-21.63a6.35 6.35 0 002.56 4 8.33 8.33 0 005.43 1.77 9 9 0 006.62-2.57L408.3 93a17.86 17.86 0 01-11.47 4.27zm5.78-19.08a6.64 6.64 0 00-2-4.28 6.41 6.41 0 00-4.86-1.85 6.82 6.82 0 00-7 6.13zm40.72 18.45H435v-18a5.54 5.54 0 00-1.79-4.28 6.35 6.35 0 00-4.33-1.51 8.65 8.65 0 00-4.95 1.4q-2.07 1.39-2.07 5.36v17h-8.3V66.13h7.8V71a14.87 14.87 0 014.26-4 10.44 10.44 0 015.58-1.5A11.4 11.4 0 01440 69q3.3 3.54 3.38 9.58zm19.37.63A17.08 17.08 0 01451 93q-4.81-4.27-4.82-11.61c.05-4.87 1.68-8.73 4.86-11.59a16.9 16.9 0 0111.66-4.3 15.83 15.83 0 0110.87 4.16l-4.86 5.73a7.14 7.14 0 00-5.71-2.54 8.52 8.52 0 100 17 7.14 7.14 0 005.76-2.54l4.86 5.73a15.72 15.72 0 01-10.92 4.23zm26.77 0a16.21 16.21 0 01-11.58-4.55A15.33 15.33 0 01473 81.27 15.52 15.52 0 01477.57 70a14.82 14.82 0 0110.87-4.48 13.9 13.9 0 0110.84 4.6 16.25 16.25 0 014.13 11.28 14 14 0 01-.31 2.85h-21.63a6.35 6.35 0 002.56 4 8.33 8.33 0 005.43 1.75 9 9 0 006.62-2.57l4.86 5.57a17.86 17.86 0 01-11.47 4.27zm5.79-19.08a6.64 6.64 0 00-2-4.28 6.41 6.41 0 00-4.86-1.85 6.82 6.82 0 00-7 6.13zm22.35 19.08a26 26 0 01-8.21-1.1 15.09 15.09 0 01-5.25-2.89l3.07-5.93a19.62 19.62 0 004.57 2.47 14.63 14.63 0 005.24.93 5.61 5.61 0 003.28-.76 2.4 2.4 0 001.08-1.99 1.82 1.82 0 00-.56-1.38 4 4 0 00-1.51-.84l-8.27-2.91a8.4 8.4 0 01-4.18-2.79 7.44 7.44 0 01-1.38-4.56 8.82 8.82 0 013.79-7.17 14.77 14.77 0 019.29-2.89q7.13 0 11.54 3.45l-3.44 5.85a12.79 12.79 0 00-7.77-2.62 4.93 4.93 0 00-3.25.84 2.6 2.6 0 00-1 1.92 2.23 2.23 0 00.54 1.47 4 4 0 001.81 1.11l7.1 2.52a10.36 10.36 0 014.83 3.12A8.09 8.09 0 01526.51 95a17.8 17.8 0 01-8.9 2.27z" fill="#20201e"/></svg>