<svg xmlns="http://www.w3.org/2000/svg" viewBox="0 0 185 35.96"><defs><style>.cls-2{fill:#008542;fill-rule:evenodd}</style></defs><g id="Layer_2" data-name="Layer 2"><g id="Layer_1-2" data-name="Layer 1"><path fill="#fdc82f" d="M0 0h36.07v8.74H0z"/><path class="cls-2" d="M74.78 26.5H63.65l3.78-13.31H78.3l-.89 3.09h-6.49l-.55 1.91h5.51l-.89 3.12h-5.5l-.6 2.08h6.77l-.88 3.11zM59.05 13.19h-6.41L48.83 26.5h4.38l1.18-4.14h2.92c3.39-.22 5.38-2 6.14-4.67s-.57-4.5-4.4-4.5zm.24 4.5a2 2 0 01-2 1.56h-2l.82-3h1.24c.94.03 2.28.2 1.94 1.44zM168.29 26.5l-1-13.31h-4.45l-.29.43-8 12.47-.26.41h4.28l1-1.75h4.36v1.75zm-5.72-4.5h-1.36l1.36-2.44 1.34-2.35L164 22zM184.66 17.05c.34-2.33-.81-4.22-4.49-4.22-3.36 0-6.2 1.41-7 4.26-1.46 5.08 6.6 3.69 6 5.72-.17.63-1 1-2.08 1a1.91 1.91 0 01-1.15-.34 1.09 1.09 0 01-.43-1.05h-4.19c-.58 2.39 1.12 4.45 4.64 4.45s6.68-1.51 7.54-4.6c1.39-4.83-6.63-3.61-6.06-5.6.12-.48.63-.76 1.61-.76a2 2 0 011 .24.83.83 0 01.36.91zM154.55 14.56c-.57-.94-2-1.37-4.74-1.37h-6.29l-3.78 13.31h4.35l1.34-4.64h1.32a2.72 2.72 0 011.6.31c.46.33.39 1 .08 2a2.23 2.23 0 01-.08.24 7.79 7.79 0 00-.35 2.09h4.42l.1-.41c-.5 0-.29-.57.21-2.32.77-2.68 0-3-1.24-3.54a4.33 4.33 0 003.06-3 1.48 1.48 0 00.1-.27 2.88 2.88 0 00-.1-2.4zm-4.14 3.11c-.24.84-.93 1.19-2.06 1.27h-2.1l.76-2.66h2c1.04 0 1.67.45 1.4 1.39zM134.62 13.19h-6.4l-3.78 13.31h7.43c3-.17 5.24-1.25 6-4 .41-1.46 0-2.7-1.34-3.06a5 5 0 002.56-2.9c.69-2.65-1.48-3.35-4.47-3.35zm-.77 9c-.26 1-1 1.2-2 1.22h-2.11l.66-2.41h1.42c1.36 0 2.37 0 2.03 1.17zm.89-4.81a1.77 1.77 0 01-1.85 1.15h-1.79l.62-2.23h1.53c.94-.02 1.75 0 1.49 1.06zM118.2 12.83a8.86 8.86 0 00-2 .22 9.35 9.35 0 00-7 6.68c-1.27 4.55.79 7.13 5 7.13a8.91 8.91 0 002-.22 9.5 9.5 0 007-6.87c1.03-3.51-.2-6.94-5-6.94zm.64 6.94c-.48 1.75-1.34 3.14-2.63 3.64a3.23 3.23 0 01-1.08.19c-2.08 0-2-2.13-1.51-3.83a5.2 5.2 0 012.59-3.49 2.82 2.82 0 011-.19c1.97-.09 2.16 1.91 1.63 3.68zM102.33 13.19h-6.27l-3.28 11.56-.51 1.75h4.38L98 21.86h1.31a2.76 2.76 0 011.61.31c.45.33.38 1 .07 2l-.07.24a8.47 8.47 0 00-.36 2.08h4.43l.12-.41c-.53 0-.32-.57.19-2.32.76-2.68 0-3-1.25-3.54a4.46 4.46 0 003.11-3.22c.72-2.61-.38-3.81-4.83-3.81zm.6 4.48c-.24.84-.94 1.19-2.06 1.27h-2.11l.77-2.66h2c1.04 0 1.66.45 1.4 1.39zM92.78 14.94l.5-1.75H81.05l-.98 3.5h3.92l-2.8 9.81h4.36l2.8-9.81h3.92l.51-1.75zM26.88 18.77A2 2 0 0029.05 17c0-.26-.05-1.17-1.4-1.17h-2.84l-.82 3zM14.16 16.79a1.05 1.05 0 00-1.14-1H10l-.7 2.47h3.22a1.48 1.48 0 001.64-1.47zM11.19 20.79H8.6l-.84 2.88h2.89c1.63 0 1.89-.84 2-1.11a1.51 1.51 0 000-1.13c-.11-.29-.18-.64-1.46-.64z"/><path class="cls-2" d="M32.14 15.21a3.85 3.85 0 01-.36 3.25 4.83 4.83 0 01-2.57 2.05 1.45 1.45 0 011.36 1.55c0 .31.18 4.48.18 4.48h-3.63L27 22.83c0-.44.11-1.45-1.51-1.45h-2.24l-1.43 5.05h-3.9l3.85-13.32h-8.41a4.76 4.76 0 013.54 1.29 3.26 3.26 0 01.28 3.5 4.11 4.11 0 01-1.76 1.74 2.81 2.81 0 011.25 1.49 4.06 4.06 0 01-1 3.9c-.69.58-1.28 1.38-4.69 1.38H3.09l3.85-13.3H0V36h36.07V13.11h-7.51a3.53 3.53 0 013.58 2.1z"/><path fill="none" d="M0 0h185v35.96H0z"/></g></g></svg>