<svg xmlns="http://www.w3.org/2000/svg" width="194.557" height="177.42" viewBox="0.101 311.29 194.557 177.42"><path fill="#F05423" d="M104.234 488.71H60.887c-8.871 0-17.137-4.839-21.573-12.702L3.427 412.701c-4.436-7.661-4.436-17.54 0-25.201l36.089-63.508c4.637-7.661 12.702-12.702 21.371-12.702h72.581c8.871 0 17.137 4.839 21.573 12.702l36.29 63.508c4.436 7.661 4.436 17.54 0 25.201l-9.274 14.92c-4.436 7.661-12.702 12.5-21.573 12.5h-43.145l23.588-40.322-21.976-37.903H75.403l-21.774 38.306 50.605 88.508z"/></svg>