<svg xmlns="http://www.w3.org/2000/svg" viewBox="0 0 381.19 156.7"><defs><style>.cls-1,.cls-2{fill:#1c388d}.cls-1{fill-rule:evenodd}.cls-3{fill:#181716}</style></defs><g id="Ebene_2" data-name="Ebene 2"><g id="Ebene_1-2" data-name="Ebene 1"><path class="cls-1" d="M280.45 53.33c-.43-2.17-2.31-.43-2.89-2.17-7.66 15.9-8.1 36.29-14.6 53.78 1.15 1.74 3.18.87 4.77 2 6.94-15.73 16.77-32.5 32.27-43.05 2 11.42 0 19.37 2 32.09 0 6.51 8.25 9.83 13.89 6.94 8.09-4.77 14.6-16.19 17.49-23.57-6.65 5.79-15.18 17.93-24.44 17.93-7.66-12.14 2.46-28-4.77-40.33-10.7 3.75-21 12.57-26.6 23.71-1.3-.87-2 2.31-2.89 0 2.17-9.4 3.76-18.37 5.78-27.33-3.61 17.93-2 9 0 0M58.25 51.62C48.7 61.31 53 83.13 54.63 97.45c1.3-.29 2.89 2.16 3.62 0 7.37-12.44 16.48-26 26.6-35.28a283.63 283.63 0 01-17.5 48c-11.85 14.17-22.4 34.55-39.9 39-7.38-2-14.31-3.62-19.66-9.84-8.39-4.91 3.76-15-3.18-16.62C1 126.36-1.47 132 1 137.35c4.48 10.12 15 14.6 25.16 15.47 32.68-11 52.91-48 60.72-79.81 1.88-6.79 8.1-13 6.94-19.37-18.07-1.59-22.55 24-35.56 30.07V51.62"/><path class="cls-2" d="M114.23 5.35c-4.48 34.12-15.9 69-12.72 102.36 13.73-1.16 17.78-16.92 25.16-26-6.08 3.32-13.74 11.42-20.39 17.64 0-25.74 6.65-51.76 9.83-77.35-.87-5.35 5.78-15.47-1.88-16.63"/><path class="cls-1" d="M135.23 41.78c-1.59 9.84-5.06 19.09-5.06 29.35a29.87 29.87 0 00-2.75 3.18c-2 3.77-8.09 10.7 0 13.45-3.32 23.24-13.42 43.09-17.93 65.5.44 1.3 2.9 4.77 4.2 2.89 4-16.78 11.27-34.27 16.48-51.76.87 2.17 3.47 0 3.76 2.17 13.74-13.56 29.64-27.33 27.62-48.15-6.94-13.74-17.06 4.92-24.44 4.92 0-1.16-.72-3.33.87-3.62-.87-6.07 6.79-17.93-2.75-17.93m16.63 34.12c-3.62 8.25-13.86 17.1-18.8 23.72-.72-6.08 1.3-15.19 2.17-22.41 6.36-5.21 11.43-14.75 19.38-15.9.86 5.63-1.61 10.11-2.75 14.59z"/><path class="cls-2" d="M194.93 0c-9 35-21.26 70-27.32 105.4 2.16 1.88 5 0 6.93-2.17 4.92-15.33 15-31.66 27.33-41.06-2.46 9.4.44 20.1 0 28.62 1.59 3.48 3.61 8.82 9.83 6.8 8.39-6.5 16.2-15.9 18.22-24.29a63.43 63.43 0 01-21.11 18.22c-4.63-9.83 0-22 0-31.23-1.3-2.89-.87-10.12-6.94-7.81-7.37 9.4-15.9 20.24-23.71 29.21 4.63-22 10.7-45.54 18.8-67.09-.73-4.77 6.21-13.3-2-14.6"/><path class="cls-1" d="M260.06 49.16c-25.73-6.07-22 31.37-43.94 31.37-.3 6.8 7.66 2.46 9.83 4 .43 9.4-5.36 20.24 3.9 27.18C246.33 115.23 254 96 262.09 85.45c-9.4 7.23-17.06 18.36-28 21.54-18.22-28.48 22.7-27.33 26-50.89 1.6-1.59 1.6-5.2 0-6.94M245.47 68c-1.74 5.35-11.14 4.78-4.92-1.3 4.48-4.48 6.79-10.55 13.73-10.55A31.64 31.64 0 01245.47 68z"/><path class="cls-2" d="M20.51 108c9.23-5 16.64-7.63 20.49-17.85 7.08-20.6-11.21-33-14-50.76 1.64-5.94 9.23-7.59 12.85-6.43 0-3.3-2-6.43-3.62-7.42-3.3 5.27-12.53 2.64-15.66 10.22 1 12.85 7.58 23.08 14 33.3 3.79 11.86 1 25.21-11.37 31.31-4.29 4.78-14-5.44-12.86 3.62 2.64 3.3 5.93 4.46 10.22 4"/><path class="cls-3" d="M140.17 145.51v-22.68h3.09v22.68zM158.24 145.51v-10.42a4.33 4.33 0 00-.91-2.92 3.21 3.21 0 00-2.57-1.07 4.19 4.19 0 00-2.14.63 5 5 0 00-1.65 1.46v12.32H148v-23.37h3v8.62a4.37 4.37 0 011.89-1.53 6.49 6.49 0 012.71-.61 5.15 5.15 0 014.12 1.74 7 7 0 011.49 4.73v10.42zM174.17 131.77a3.35 3.35 0 00-1.94-.67 3.45 3.45 0 00-2.73 1.44 5.32 5.32 0 00-1.17 3.47v9.5h-2.94v-16.58h2.94v2.65a5.16 5.16 0 014.78-3 14 14 0 012.28.28zM187.42 145.51v-22.68h3.1v22.68zM203.78 125.62v19.89h-3.09v-19.89h-7.22v-2.79h17.85v2.79zM210.8 137.68V135h6.63v2.71zM220.81 144.47l1.13-2.84a8.05 8.05 0 002.16 1.06 7.56 7.56 0 002.31.42 4.17 4.17 0 002.91-1 3.25 3.25 0 001.1-2.52 3.93 3.93 0 00-.61-2.13 7.39 7.39 0 00-3.07-2.14l-1.83-.86a7.17 7.17 0 01-3.24-2.57 6.59 6.59 0 01-.92-3.57 5.49 5.49 0 011.79-4.21 6.49 6.49 0 014.61-1.67c2.51 0 4.26.4 5.24 1.22l-.92 2.69a6.77 6.77 0 00-1.89-.86 7.49 7.49 0 00-2.35-.42 3.36 3.36 0 00-2.48.9 3.06 3.06 0 00-.91 2.3 3.69 3.69 0 00.33 1.58 3.24 3.24 0 00.9 1.19 13.67 13.67 0 002.38 1.35l1.86.88a7.4 7.4 0 013.25 2.63 7.23 7.23 0 01.94 3.87 5.53 5.53 0 01-2.05 4.34 8.08 8.08 0 01-5.45 1.79 9.06 9.06 0 01-5.19-1.43zM243 148.33a5.14 5.14 0 01-2.41 2.63 8.1 8.1 0 01-4.1 1v-2.63a5.68 5.68 0 003.16-.86 2.48 2.48 0 001.32-2.1 7.82 7.82 0 00-.48-2.68c-.32-.88-.74-2-1.24-3.27l-4.49-11.54h3l4.88 12.82 4.36-12.77h3zM251 144.52l1-2.79a7.93 7.93 0 004 1.61c1.82 0 2.73-.76 2.73-2.29 0-1.09-.88-2-2.63-2.81a21.41 21.41 0 01-2.74-1.41 6.73 6.73 0 01-1.22-1.09 4.46 4.46 0 01-.77-1.3 4.27 4.27 0 01-.26-1.48 3.8 3.8 0 011.49-3.19 6.19 6.19 0 013.88-1.15 12.6 12.6 0 014.57 1.15l-.84 2.72a5.59 5.59 0 00-3.51-1.39 3.05 3.05 0 00-1.77.5 1.46 1.46 0 00-.72 1.25 2.59 2.59 0 001.81 2.41l2.1 1a7.38 7.38 0 012.82 2 4.43 4.43 0 01.88 2.83 4.23 4.23 0 01-1.56 3.49 6.73 6.73 0 01-4.33 1.26 9.85 9.85 0 01-4.93-1.32zM265.79 131.26h-1.92v-2.33h1.92v-3.46l2.94-1.13v4.59h4.55v2.33h-4.55v8.23a4.83 4.83 0 00.71 3 2.72 2.72 0 002.27.88 5.43 5.43 0 002.33-.57l.44 2.59a16.29 16.29 0 01-4 .46 4.36 4.36 0 01-3.32-1.46 5.21 5.21 0 01-1.36-3.69zM291.08 137.51h-11.95a6 6 0 001.6 4.47 5 5 0 003.62 1.36 6.19 6.19 0 004.21-1.47l1.24 2.13a5.5 5.5 0 01-2.09 1.18 11.41 11.41 0 01-3.93.65 7.33 7.33 0 01-5.31-2.12 8.31 8.31 0 01-2.44-6.28 8.87 8.87 0 012.5-6.58 7.21 7.21 0 015.28-2.22 7.54 7.54 0 015.55 2 6.83 6.83 0 011.95 5.09 6.43 6.43 0 01-.23 1.79zM284 131.1a4.65 4.65 0 00-4.74 4.27h9.18a4.16 4.16 0 00-1.12-3 4.32 4.32 0 00-3.32-1.27zM313.41 145.51V135q0-3.92-3.39-3.92a3.77 3.77 0 00-3.26 2.15v12.26h-2.94v-11.76a2.3 2.3 0 00-.93-1.93 3.88 3.88 0 00-2.43-.7 3.39 3.39 0 00-1.88.68 4.24 4.24 0 00-1.42 1.5v12.23h-2.94v-16.58h1.92l1 1.92a5.2 5.2 0 014.26-2.23q3.56 0 5 2.22a3.79 3.79 0 011.85-1.58 6.45 6.45 0 012.77-.64 5.15 5.15 0 014 1.53 6.1 6.1 0 011.4 4.28v11.08zM330.56 145.51v-10.42a4.38 4.38 0 00-.91-2.92 3.21 3.21 0 00-2.57-1.07 4.22 4.22 0 00-2.15.63 5.15 5.15 0 00-1.65 1.46v12.32h-2.94v-23.37h2.94v8.62a4.46 4.46 0 011.9-1.53 6.41 6.41 0 012.7-.61 5.16 5.16 0 014.13 1.74 7 7 0 011.49 4.73v10.42zM346.84 143.61a6.51 6.51 0 01-5.4 2.21 4.66 4.66 0 01-3.39-1.42 4.75 4.75 0 01-1.43-3.52 5.26 5.26 0 012.21-4.26 8.8 8.8 0 015.63-1.74 6.53 6.53 0 012.1.4q0-4-3.59-4a5.73 5.73 0 00-4.24 1.48l-1.24-2.46a7.52 7.52 0 012.31-1.17 9.21 9.21 0 012.83-.49q3.6 0 5.24 1.64t1.63 5.22v5.94a3 3 0 001.3 2.91v1.48a5.38 5.38 0 01-2.68-.52 2.86 2.86 0 01-1.28-1.7zm-.28-6.24a10.36 10.36 0 00-1.95-.31 5.6 5.6 0 00-3.61 1.14 3.42 3.42 0 00-1.41 2.71c0 1.73 1 2.59 3.05 2.59a5 5 0 003.95-2.12zM356.92 128.93v10.58q0 3.83 3.32 3.83a4.58 4.58 0 002.67-.83 4 4 0 001.59-1.94v-11.64h2.94v16.58h-2.94v-2.29a4.55 4.55 0 01-2 1.79 6.09 6.09 0 01-2.92.81 5.42 5.42 0 01-4.17-1.56 6.34 6.34 0 01-1.45-4.45v-10.88zM370.37 144.52l1-2.79a8 8 0 004 1.61c1.81 0 2.72-.76 2.72-2.29 0-1.09-.88-2-2.63-2.81a21.8 21.8 0 01-2.73-1.41 6.48 6.48 0 01-1.23-1.09 4.46 4.46 0 01-.77-1.3 4.26 4.26 0 01-.25-1.48 3.8 3.8 0 011.48-3.19 6.22 6.22 0 013.89-1.15 12.56 12.56 0 014.56 1.15l-.83 2.72a5.64 5.64 0 00-3.52-1.39 3.05 3.05 0 00-1.77.5 1.46 1.46 0 00-.72 1.25 2.61 2.61 0 001.81 2.41l2.11 1a7.25 7.25 0 012.81 2 4.43 4.43 0 01.89 2.83 4.21 4.21 0 01-1.57 3.49 6.71 6.71 0 01-4.33 1.26 9.84 9.84 0 01-4.92-1.32z"/></g></g></svg>