<svg xmlns="http://www.w3.org/2000/svg" height="82" width="300" version="1.0"><path fill="#2f4f5a" d="M36.743 81.242c-15.812-.197-28.75-.747-28.75-1.223 0-1.458 110.83-2.43 199.42-1.75 46.154.355 84.142.87 84.417 1.146.275.275.232.768-.096 1.096-.676.676-211 1.279-254.99.731zm-3.75-17.933c0-.42.857-1.694 1.904-2.83 1.047-1.135 5.355-10.838 9.573-21.563C53.215 16.68 55.493 12.335 60.742 7.878l3.751-3.186-9.502.569c-10.862.65-17.26 2.573-21.24 6.386-3.027 2.9-4.887 8.06-4.054 11.244.734 2.806-1.265 2.554-4.368-.549-3.675-3.674-2.754-8.66 2.512-13.603 6.587-6.183 11.074-7.037 40.652-7.735C82.793.666 94.645.472 94.83.573c.186.1-.918 1.006-2.452 2.013C90.29 3.956 87.186 4.5 80.04 4.753c-8.634.304-9.807.582-12.26 2.9-2.813 2.66-8.488 15.359-15.757 35.263C47.89 54.232 44.57 60.02 41.203 61.784c-2.577 1.349-8.21 2.396-8.21 1.525zm85 .119c0-.387.827-1.899 1.837-3.359s2.088-3.329 2.395-4.154c.306-.825 1.493-3.851 2.638-6.725l2.08-5.224-4.498 3.434c-7.687 5.868-15.93 7.13-19.997 3.06-4.289-4.288-2.6-13.663 4.113-22.831 7.532-10.286 21.432-14.086 21.432-5.858 0 3.775-5.656 10.193-12.953 14.696-6.088 3.757-7.888 7.008-5.919 10.688 1.196 2.233 3.34 2.196 8.372-.145 6.258-2.911 12.005-9.632 14.932-17.464 1.412-3.778 2.568-7.009 2.568-7.18 0-.171-1.013-.5-2.25-.732-2.082-.39-2.015-.52.889-1.747 1.726-.73 3.927-2.709 4.89-4.399 5.39-9.464 12.561-13.73 24.144-14.367 7.74-.425 8.311-.312 10.75 2.127 1.417 1.417 2.576 3.081 2.576 3.699 0 1.54-5.548 6.968-7.123 6.968-.993 0-1.01-.267-.077-1.2.66-.66 1.2-2.45 1.2-3.977 0-6.05-9.233-7.642-16.072-2.772-2.835 2.02-8.928 10.242-8.928 12.05 0 .39 4.5.462 10 .16 10.613-.586 12.647.319 7.132 3.171-8.07 4.174-15.814 26.471-9.505 27.371 4.779.682 13.374-14.6 13.374-23.779 0-2.66.343-2.845 9-4.863 10.903-2.544 12.412-2.19 11.71 2.738-.282 1.98-.851 4.443-1.265 5.472-.414 1.03 1.36-.386 3.94-3.145 5.23-5.592 9.36-7.758 13.029-6.837 4.841 1.215 4.39 3.843-3.803 22.11-2.28 5.087-3.591 9.548-3.6 12.25-.013 4.903-1.071 5.281-4.678 1.675-3.464-3.464-2.878-8.1 2.533-20.056 2.274-5.023 4.134-9.636 4.134-10.25 0-4.56-10.08 7.082-16.5 19.057-4.592 8.564-5.266 9.35-8.25 9.638-1.788.172-3.25-.022-3.25-.431 0-.41 2.25-6.518 5-13.575 5.913-15.175 6.185-17.13 2.25-16.188-3.902.932-4.25 1.235-4.251 3.69-.001 2.81-5.146 13.706-8.627 18.27-5.394 7.071-14.297 10.263-19.15 6.864-5.073-3.553-1.332-18.462 6.55-26.102l3.962-3.841-5.79.335-5.789.335-4.186 11.665c-5.786 16.124-10.37 25.729-13.133 27.517-2.738 1.772-7.837 3.178-7.837 2.16zm.186-33.171c3.748-3.964 5.286-8.223 3.252-9.004-2.835-1.088-8.606 6.078-10.925 13.562l-.743 2.4 2.865-2.058c1.575-1.133 4.074-3.338 5.551-4.9zM87.627 54.842c-2.07-1.63-2.635-2.94-2.635-6.12v-4.045l-3.5 2.67c-7.928 6.046-15.006 7.152-19.164 2.994-2.324-2.324-2.508-3.067-1.9-7.646 1.6-12.074 10.87-23.087 21.25-25.248 2.455-.511 3.647-.2 5.21 1.364 1.706 1.706 1.863 2.497.991 4.998-1.28 3.67-9.19 11.2-14.745 14.033-3.792 1.935-4.142 2.444-4.142 6.034 0 2.156.404 4.17.898 4.475 2.385 1.474 7.863-1.07 12.617-5.86 4.136-4.166 6.294-7.847 12.03-20.517C101.12 7.43 101.72 6.483 104.85 5.67c1.829-.474 3.708-.726 4.176-.56.468.167-2.45 7.8-6.482 16.963-8.69 19.742-10.826 25.862-10.826 31.01 0 4.405-.471 4.607-4.093 1.758zM77.07 31.462c4.642-4.399 6.576-8.295 4.932-9.938-.753-.753-1.57-.75-2.787.01-3.905 2.437-11.357 16.674-7.639 14.593.767-.43 3.24-2.529 5.494-4.665zM264.54 54.77c-2.29-1.802-2.667-2.76-2.358-6 .202-2.12.018-3.856-.409-3.856s-.776.447-.776.994c0 1.969-8.265 7.006-11.495 7.006-3.492 0-6.505-2.548-6.505-5.503 0-1.731-.14-1.718-2.25.212-6.241 5.707-14.196 6.936-18.305 2.828l-2.464-2.464-3.63 2.464c-4.212 2.858-9.465 3.207-11.882.79-2.403-2.404-1.466-6.465 4.58-19.839 5.144-11.383 5.167-11.413 9.304-12.277 2.28-.476 4.297-.756 4.48-.621.184.134-2.178 5.84-5.25 12.68-5.78 12.875-6.711 16.73-4.043 16.73 2.37 0 7.46-4.165 7.46-6.105 0-2.986 3.974-11.157 7.547-15.518 4.092-4.993 10.581-8.376 16.068-8.376 6.61 0 8.567 4.138 3.75 7.927-3.22 2.533-4.823 2.666-3.861.323 2.225-5.423-1.114-6.943-5.697-2.593-8.503 8.072-12.682 26.918-5.497 24.79 4.885-1.446 9.564-5.735 12.722-11.662 6.842-12.836 14.056-18.062 25.128-18.202 3.664-.046 6.992.244 7.396.645.404.401-.426 3.326-1.844 6.5-4.315 9.655-7.921 21.503-8.071 26.517-.078 2.613-.419 4.752-.757 4.752-.339.001-1.842-.963-3.342-2.143zm-6.246-10.35c3.296-3.393 13.268-22.273 12.285-23.256-1.166-1.166-6.22 1.148-9.028 4.134-3.934 4.182-8.195 12.062-9.384 17.357-1.463 6.512.867 7.183 6.128 1.766zm-36.05-32.202c-1.71-.644-1.577-4.787.202-6.264 2.264-1.878 5.048-.856 5.048 1.852 0 2.522-3.176 5.192-5.25 4.412z"/></svg>